<svg xmlns="http://www.w3.org/2000/svg" width="23.5" height="31.334" viewBox="0 0 23.5 31.334">
  <g id="calculator" transform="translate(-64)">
    <g id="Group_2253" data-name="Group 2253" transform="translate(64)">
      <g id="Group_2252" data-name="Group 2252" transform="translate(0)">
        <path id="Path_8152" data-name="Path 8152" d="M82.931,0H68.569A4.574,4.574,0,0,0,64,4.569V26.764a4.574,4.574,0,0,0,4.569,4.569H82.931a4.574,4.574,0,0,0,4.569-4.57V4.569A4.574,4.574,0,0,0,82.931,0Zm3.264,26.764a3.268,3.268,0,0,1-3.264,3.264H68.569a3.268,3.268,0,0,1-3.264-3.264V4.569a3.268,3.268,0,0,1,3.264-3.264H82.931a3.268,3.268,0,0,1,3.264,3.264Z" transform="translate(-64)" fill="#fff"/>
      </g>
    </g>
    <g id="Group_2255" data-name="Group 2255" transform="translate(66.611 2.611)">
      <g id="Group_2254" data-name="Group 2254" transform="translate(0)">
        <path id="Path_8153" data-name="Path 8153" d="M122.987,42.667H108.625a1.961,1.961,0,0,0-1.958,1.958v6.528a1.961,1.961,0,0,0,1.958,1.958h14.361a1.961,1.961,0,0,0,1.958-1.958V44.625A1.961,1.961,0,0,0,122.987,42.667Zm.653,8.486a.653.653,0,0,1-.653.653H108.625a.653.653,0,0,1-.653-.653V44.625a.653.653,0,0,1,.653-.653h14.361a.653.653,0,0,1,.653.653Z" transform="translate(-106.667 -42.667)" fill="#fff"/>
      </g>
    </g>
    <g id="Group_2257" data-name="Group 2257" transform="translate(70.528 14.361)">
      <g id="Group_2256" data-name="Group 2256" transform="translate(0)">
        <path id="Path_8154" data-name="Path 8154" d="M171.319,234.667a.653.653,0,0,0-.653.653v5.222a.653.653,0,1,0,1.306,0V235.32A.653.653,0,0,0,171.319,234.667Z" transform="translate(-170.666 -234.667)" fill="#fff"/>
      </g>
    </g>
    <g id="Group_2259" data-name="Group 2259" transform="translate(67.917 16.972)">
      <g id="Group_2258" data-name="Group 2258" transform="translate(0)">
        <path id="Path_8155" data-name="Path 8155" d="M133.875,277.333h-5.222a.653.653,0,1,0,0,1.306h5.222a.653.653,0,1,0,0-1.306Z" transform="translate(-128 -277.333)" fill="#fff"/>
      </g>
    </g>
    <g id="Group_2261" data-name="Group 2261" transform="translate(77.056 16.972)">
      <g id="Group_2260" data-name="Group 2260" transform="translate(0)">
        <path id="Path_8156" data-name="Path 8156" d="M283.208,277.333h-5.222a.653.653,0,0,0,0,1.306h5.222a.653.653,0,1,0,0-1.306Z" transform="translate(-277.333 -277.333)" fill="#fff"/>
      </g>
    </g>
    <g id="Group_2263" data-name="Group 2263" transform="translate(69.222 22.194)">
      <g id="Group_2262" data-name="Group 2262" transform="translate(0)">
        <path id="Path_8157" data-name="Path 8157" d="M152.96,362.77a.651.651,0,0,0-.9.181l-2.611,3.917a.652.652,0,1,0,1.086.723l2.611-3.917A.652.652,0,0,0,152.96,362.77Z" transform="translate(-149.335 -362.66)" fill="#fff"/>
      </g>
    </g>
    <g id="Group_2265" data-name="Group 2265" transform="translate(69.221 22.194)">
      <g id="Group_2264" data-name="Group 2264" transform="translate(0)">
        <path id="Path_8158" data-name="Path 8158" d="M153.121,366.867l-2.611-3.917a.652.652,0,1,0-1.086.723l2.611,3.917a.653.653,0,0,0,.544.291.638.638,0,0,0,.36-.11A.652.652,0,0,0,153.121,366.867Z" transform="translate(-149.314 -362.659)" fill="#fff"/>
      </g>
    </g>
    <g id="Group_2267" data-name="Group 2267" transform="translate(77.056 23.5)">
      <g id="Group_2266" data-name="Group 2266" transform="translate(0)">
        <path id="Path_8159" data-name="Path 8159" d="M283.208,384h-5.222a.653.653,0,0,0,0,1.306h5.222a.653.653,0,1,0,0-1.306Z" transform="translate(-277.333 -384)" fill="#fff"/>
      </g>
    </g>
    <g id="Group_2269" data-name="Group 2269" transform="translate(77.056 26.111)">
      <g id="Group_2268" data-name="Group 2268" transform="translate(0)">
        <path id="Path_8160" data-name="Path 8160" d="M283.208,426.667h-5.222a.653.653,0,0,0,0,1.306h5.222a.653.653,0,0,0,0-1.306Z" transform="translate(-277.333 -426.667)" fill="#fff"/>
      </g>
    </g>
  </g>
</svg>
