<svg xmlns="http://www.w3.org/2000/svg" width="89.425" height="49.695" viewBox="0 0 89.425 49.695">
  <g id="Group_588" data-name="Group 588" transform="translate(0 0)">
    <path id="car-2" d="M7.716,44.063l18.11-3.517c.188,0,.376-.2.47-.293C28.084,38.006,39.8,25.6,47.233,25.6H73.3c6.116,0,11.667,5.959,15.148,10.941a18.25,18.25,0,0,1,3.481,10.746V58.618a6.428,6.428,0,0,1-6.3,6.545H9.786A6.372,6.372,0,0,1,3.576,59.5L2.541,51.292A6.555,6.555,0,0,1,7.716,44.063ZM36.228,42.44H79.852c1.039.049,1.329-.551,1.06-1.213,0,0-1.394-5.166-3.625-7.56a6.869,6.869,0,0,0-5.232-2.44H47.564c-2.729,0-8.043,5.156-12.088,9.161A1.182,1.182,0,0,0,36.228,42.44Z" transform="translate(-2.5 -25.6)" fill="#ee2a7b"/>
    <ellipse id="Ellipse_92" data-name="Ellipse 92" cx="9.604" cy="9.96" rx="9.604" ry="9.96" transform="translate(10.486 29.775)" fill="#2d2ee0" style="mix-blend-mode: multiply;isolation: isolate"/>
    <ellipse id="Ellipse_93" data-name="Ellipse 93" cx="9.96" cy="9.96" rx="9.96" ry="9.96" transform="translate(59.575 29.775)" fill="#2d2ee0" style="mix-blend-mode: multiply;isolation: isolate"/>
  </g>
</svg>
