<svg xmlns="http://www.w3.org/2000/svg" width="31.5" height="31.5" viewBox="0 0 31.5 31.5">
  <path id="envelope-square-solid" d="M28.125,32H3.375A3.375,3.375,0,0,0,0,35.375v24.75A3.375,3.375,0,0,0,3.375,63.5h24.75A3.375,3.375,0,0,0,31.5,60.125V35.375A3.375,3.375,0,0,0,28.125,32Zm-15.6,16.179C6.147,43.551,6.212,43.54,4.5,42.207v-1.77A1.687,1.687,0,0,1,6.188,38.75H25.313A1.687,1.687,0,0,1,27,40.437v1.77c-1.714,1.334-1.648,1.345-8.024,5.972-.738.538-2.207,1.837-3.226,1.821C14.73,50.015,13.263,48.718,12.524,48.179ZM27,45.062v10a1.687,1.687,0,0,1-1.687,1.687H6.188A1.687,1.687,0,0,1,4.5,55.063v-10c.981.759,2.343,1.774,6.7,4.937,1,.727,2.67,2.26,4.549,2.251,1.89.009,3.589-1.55,4.551-2.252C24.657,46.837,26.019,45.821,27,45.062Z" transform="translate(0 -32)" fill="#292562"/>
</svg>
