<svg xmlns="http://www.w3.org/2000/svg" width="22.734" height="28.008" viewBox="0 0 22.734 28.008">
  <g id="file" transform="translate(-48.2)">
    <path id="Path_8809" data-name="Path 8809" d="M70.694,7.271,63.663.24a.82.82,0,0,0-.58-.24H51.218A3.021,3.021,0,0,0,48.2,3.018V24.99a3.021,3.021,0,0,0,3.018,3.018h16.7a3.021,3.021,0,0,0,3.018-3.018V7.852a.82.82,0,0,0-.24-.58ZM63.9,2.8l4.23,4.23H65.28A1.378,1.378,0,0,1,63.9,5.654Zm4.013,23.565h-16.7a1.378,1.378,0,0,1-1.377-1.377V3.018a1.378,1.378,0,0,1,1.377-1.377H62.262V5.654A3.021,3.021,0,0,0,65.28,8.672h4.013V24.99A1.378,1.378,0,0,1,67.917,26.367Z" fill="#fff"/>
    <path id="Path_8810" data-name="Path 8810" d="M116.8,224.933h-3.516a.821.821,0,0,0-.821.821v3.516a.821.821,0,0,0,.821.821H116.8a.821.821,0,0,0,.821-.821v-3.516A.82.82,0,0,0,116.8,224.933Zm-.821,3.516h-1.874v-1.875h1.874Z" transform="translate(-60.75 -212.629)" fill="#fff"/>
    <path id="Path_8811" data-name="Path 8811" d="M116.8,353.467h-3.516a.821.821,0,0,0-.821.821V357.8a.821.821,0,0,0,.821.82H116.8a.821.821,0,0,0,.821-.82v-3.516A.821.821,0,0,0,116.8,353.467Zm-.821,3.516h-1.874v-1.875h1.874Z" transform="translate(-60.75 -334.131)" fill="#fff"/>
    <path id="Path_8812" data-name="Path 8812" d="M241,225.754a.821.821,0,0,0,.821.821h3.516a.821.821,0,1,0,0-1.641h-3.516A.821.821,0,0,0,241,225.754Z" transform="translate(-182.253 -212.629)" fill="#fff"/>
    <path id="Path_8813" data-name="Path 8813" d="M248.852,289.2h-7.031a.821.821,0,1,0,0,1.641h7.031a.821.821,0,1,0,0-1.641Z" transform="translate(-182.253 -273.38)" fill="#fff"/>
    <path id="Path_8814" data-name="Path 8814" d="M241.821,355.108h3.516a.821.821,0,1,0,0-1.641h-3.516a.821.821,0,0,0,0,1.641Z" transform="translate(-182.253 -334.131)" fill="#fff"/>
    <path id="Path_8815" data-name="Path 8815" d="M248.852,417.733h-7.031a.821.821,0,1,0,0,1.641h7.031a.821.821,0,1,0,0-1.641Z" transform="translate(-182.253 -394.882)" fill="#fff"/>
    <path id="Path_8816" data-name="Path 8816" d="M113.288,81.974h4.394a.821.821,0,1,0,0-1.641h-4.394a.821.821,0,0,0,0,1.641Z" transform="translate(-60.751 -75.939)" fill="#fff"/>
    <path id="Path_8817" data-name="Path 8817" d="M113.288,146.241h7.031a.821.821,0,0,0,0-1.641h-7.031a.821.821,0,0,0,0,1.641Z" transform="translate(-60.751 -136.69)" fill="#fff"/>
  </g>
</svg>
