<svg xmlns="http://www.w3.org/2000/svg" width="47.47" height="25.523" viewBox="0 0 47.47 25.523">
  <path id="Path_290" data-name="Path 290" d="M17.507,31.538c-1.831-3.171-9.414-15.814-9.414-15.814a4.733,4.733,0,1,1,8.127-4.854l5.658,9.474,5.937-9.255a4.8,4.8,0,0,1,8.422,0c1.809,3.1,9.415,15.832,9.415,15.832a4.733,4.733,0,1,1-8.127,4.854L31.868,22.3s-3.611,5.617-5.9,9.236S19.338,34.71,17.507,31.538ZM44.556,17.015a5.559,5.559,0,1,1,4.78,2.71A5.561,5.561,0,0,1,44.556,17.015Z" transform="translate(-7.423 -8.564)" fill="#fff"/>
</svg>
