<svg xmlns="http://www.w3.org/2000/svg" xmlns:xlink="http://www.w3.org/1999/xlink" width="470" height="463.557" viewBox="0 0 470 463.557">
  <defs>
    <linearGradient id="linear-gradient" x1="0.5" x2="0.5" y2="1" gradientUnits="objectBoundingBox">
      <stop offset="0" stop-color="#fec435" stop-opacity="0"/>
      <stop offset="0.385" stop-color="#fec435"/>
      <stop offset="1" stop-color="#fec435"/>
    </linearGradient>
  </defs>
  <g id="Group_41" data-name="Group 41" transform="translate(-3125.188 -1087.159)">
    <path id="Path_266" data-name="Path 266" d="M114.388,0c63.175,0,114.388,6.316,114.388,14.106S177.562,28.212,114.388,28.212,0,21.9,0,14.106,51.213,0,114.388,0Z" transform="translate(3361.377 1522.504)" fill="#8e70ee"/>
    <path id="Path_13" data-name="Path 13" d="M1139.436,1443.656a7.307,7.307,0,0,1,7.307,7.307V1626.73a7.306,7.306,0,0,1-7.307,7.307H915.055a7.307,7.307,0,0,1-7.307-7.307V1450.958a7.307,7.307,0,0,1,7.307-7.307h224.381m0-2.032H915.055a9.334,9.334,0,0,0-9.335,9.335V1626.73a9.334,9.334,0,0,0,9.335,9.334h224.381a9.334,9.334,0,0,0,9.334-9.334V1450.958a9.334,9.334,0,0,0-9.334-9.334Z" transform="translate(2219.468 -259.562)" fill="#b3d8e5"/>
    <path id="Path_14" data-name="Path 14" d="M1139.436,1441.65H915.055a9.334,9.334,0,0,0-9.335,9.335v17.083h243.05v-17.085A9.334,9.334,0,0,0,1139.436,1441.65Z" transform="translate(2219.468 -259.588)" fill="#b3d8e5"/>
    <path id="Path_15" data-name="Path 15" d="M1577.59,1507.743H1474.761a6,6,0,0,1-6-6h0a6,6,0,0,1,6-6H1577.59a6,6,0,0,1,6,6h0A6,6,0,0,1,1577.59,1507.743Z" transform="translate(1737.093 -305.928)" fill="#fff"/>
    <path id="Path_16" data-name="Path 16" d="M999.684,1514.993a3.7,3.7,0,1,1-3.192-3.191A3.7,3.7,0,0,1,999.684,1514.993Z" transform="translate(2145.284 -319.663)" fill="#214a81"/>
    <path id="Path_17" data-name="Path 17" d="M1082.114,1514.993a3.7,3.7,0,1,1-3.192-3.191A3.7,3.7,0,0,1,1082.114,1514.993Z" transform="translate(2074.663 -319.663)" fill="#7badc9"/>
    <path id="Path_18" data-name="Path 18" d="M1164.544,1514.992a3.7,3.7,0,1,1-3.191-3.191A3.7,3.7,0,0,1,1164.544,1514.992Z" transform="translate(2004.043 -319.662)" fill="#214a81"/>
    <path id="Path_22" data-name="Path 22" d="M1268.056,1771.786H1125.344c-.573,0-1.044-.287-1.044-.623s.467-.623,1.044-.623h142.712c.573,0,1.046.278,1.046.623S1268.635,1771.786,1268.056,1771.786Z" transform="translate(2032.203 -536.272)" fill="#fff"/>
    <path id="Path_23" data-name="Path 23" d="M2192.873,1771.786h-11c-.573,0-1.046-.287-1.046-.623s.467-.623,1.046-.623h11c.573,0,1.044.278,1.044.623S2193.45,1771.786,2192.873,1771.786Z" transform="translate(1127.039 -536.272)" fill="#fff"/>
    <path id="Path_24" data-name="Path 24" d="M2315.786,1771.786h-14.04c-.573,0-1.046-.287-1.046-.623s.469-.623,1.046-.623h14.04c.573,0,1.044.278,1.044.623S2316.359,1771.786,2315.786,1771.786Z" transform="translate(1024.343 -536.272)" fill="#fff"/>
    <path id="Path_25" data-name="Path 25" d="M1214.626,1818.546h-89.281c-.573,0-1.044-.286-1.044-.623s.467-.623,1.044-.623h89.281c.573,0,1.046.286,1.046.623S1215.2,1818.546,1214.626,1818.546Z" transform="translate(2032.203 -576.333)" fill="#4cc9f0"/>
    <path id="Path_26" data-name="Path 26" d="M1857.239,1818.546h-16c-.573,0-1.046-.286-1.046-.623s.469-.623,1.046-.623h16c.573,0,1.046.286,1.046.623S1857.816,1818.546,1857.239,1818.546Z" transform="translate(1418.877 -576.333)" fill="#4cc9f0"/>
    <path id="Path_27" data-name="Path 27" d="M1693.192,1845.386h-43.437c-.573,0-1.044-.28-1.044-.623s.467-.623,1.044-.623H1693.2c.573,0,1.046.278,1.046.623S1693.769,1845.386,1693.192,1845.386Z" transform="translate(1582.924 -599.328)" fill="#4cc9f0"/>
    <path id="Path_28" data-name="Path 28" d="M1555.689,1845.386h-8.754c-.573,0-1.046-.28-1.046-.623s.467-.623,1.046-.623h8.754c.573,0,1.046.278,1.046.623S1556.267,1845.386,1555.689,1845.386Z" transform="translate(1671.013 -599.328)" fill="#4cc9f0"/>
    <path id="Path_29" data-name="Path 29" d="M1446.039,1845.386h-8.754c-.573,0-1.046-.28-1.046-.623s.467-.623,1.046-.623h8.754c.573,0,1.046.278,1.046.623S1446.618,1845.386,1446.039,1845.386Z" transform="translate(1764.954 -599.328)" fill="#4cc9f0"/>
    <path id="Path_30" data-name="Path 30" d="M1336.4,1845.386h-8.755c-.573,0-1.044-.28-1.044-.623s.467-.623,1.044-.623h8.755c.573,0,1.046.278,1.046.623S1336.972,1845.386,1336.4,1845.386Z" transform="translate(1858.886 -599.328)" fill="#4cc9f0"/>
    <path id="Path_31" data-name="Path 31" d="M1226.741,1845.386h-8.756c-.573,0-1.044-.28-1.044-.623s.467-.623,1.044-.623h8.756c.573,0,1.045.278,1.045.623S1227.318,1845.386,1226.741,1845.386Z" transform="translate(1952.835 -599.328)" fill="#4cc9f0"/>
    <path id="Path_32" data-name="Path 32" d="M1353.372,1878.056H1217.984c-.573,0-1.044-.287-1.044-.623s.467-.623,1.044-.623h135.388c.573,0,1.046.286,1.046.623S1353.95,1878.056,1353.372,1878.056Z" transform="translate(1952.835 -627.317)" fill="#f72585"/>
    <path id="Path_33" data-name="Path 33" d="M1128.5,1845.386h-3.159c-.573,0-1.044-.28-1.044-.623s.467-.623,1.044-.623h3.159c.573,0,1.046.278,1.046.623S1129.082,1845.386,1128.5,1845.386Z" transform="translate(2032.203 -599.328)" fill="#4cc9f0"/>
    <path id="Path_34" data-name="Path 34" d="M1128.5,1878.056h-3.159c-.573,0-1.044-.287-1.044-.623s.467-.623,1.044-.623h3.159c.573,0,1.046.286,1.046.623S1129.082,1878.056,1128.5,1878.056Z" transform="translate(2032.203 -627.317)" fill="#4cc9f0"/>
    <path id="Path_35" data-name="Path 35" d="M1128.5,1910.726h-3.159c-.573,0-1.044-.286-1.044-.623s.467-.623,1.044-.623h3.159c.573,0,1.046.287,1.046.623S1129.082,1910.726,1128.5,1910.726Z" transform="translate(2032.203 -655.306)" fill="#4cc9f0"/>
    <path id="Path_36" data-name="Path 36" d="M1128.5,1943.4h-3.159c-.573,0-1.044-.279-1.044-.623s.467-.623,1.044-.623h3.159c.573,0,1.046.279,1.046.623S1129.082,1943.4,1128.5,1943.4Z" transform="translate(2032.203 -683.296)" fill="#4cc9f0"/>
    <path id="Path_37" data-name="Path 37" d="M2238.951,1878.056h-18.7c-.573,0-1.044-.287-1.044-.623s.467-.623,1.044-.623h18.7c.573,0,1.044.286,1.044.623S2239.524,1878.056,2238.951,1878.056Z" transform="translate(1094.158 -627.317)" fill="#f72585"/>
    <path id="Path_38" data-name="Path 38" d="M1253.212,1910.726h-37.457c-.573,0-1.044-.286-1.044-.623s.467-.623,1.044-.623h37.462c.573,0,1.044.287,1.044.623S1253.789,1910.726,1253.212,1910.726Z" transform="translate(1954.746 -655.306)" fill="#f72585"/>
    <path id="Path_39" data-name="Path 39" d="M1253.212,1944.2h-37.457c-.573,0-1.044-.287-1.044-.623s.467-.623,1.044-.623h37.462c.573,0,1.044.286,1.044.623S1253.789,1944.2,1253.212,1944.2Z" transform="translate(1954.746 -683.981)" fill="#f72585"/>
    <path id="Path_40" data-name="Path 40" d="M1253.212,1977.666h-37.457c-.573,0-1.044-.279-1.044-.623s.467-.623,1.044-.623h37.462c.573,0,1.044.279,1.044.623S1253.789,1977.666,1253.212,1977.666Z" transform="translate(1954.746 -712.656)" fill="#f72585"/>
    <path id="Path_41" data-name="Path 41" d="M1253.212,2011.136h-37.457c-.573,0-1.044-.278-1.044-.623s.467-.623,1.044-.623h37.462c.573,0,1.044.279,1.044.623S1253.789,2011.136,1253.212,2011.136Z" transform="translate(1954.746 -741.331)" fill="#f72585"/>
    <path id="Path_42" data-name="Path 42" d="M1725.991,2011.136h-76.237c-.573,0-1.044-.278-1.044-.623s.467-.623,1.044-.623H1726c.573,0,1.045.279,1.045.623S1726.569,2011.136,1725.991,2011.136Z" transform="translate(1582.924 -741.331)" fill="#fec435"/>
    <path id="Path_43" data-name="Path 43" d="M1996.247,1977.666H1965.2c-.573,0-1.044-.279-1.044-.623s.467-.623,1.044-.623h31.043c.573,0,1.044.279,1.044.623S1996.825,1977.666,1996.247,1977.666Z" transform="translate(1312.667 -712.656)" fill="#fec435"/>
    <path id="Path_44" data-name="Path 44" d="M2108.2,1943.4h-12.321c-.573,0-1.046-.279-1.046-.623s.467-.623,1.046-.623H2108.2c.573,0,1.044.279,1.044.623S2108.774,1943.4,2108.2,1943.4Z" transform="translate(1200.718 -683.296)" fill="#fec435"/>
    <path id="Path_45" data-name="Path 45" d="M1275.567,2072.1H1132.854c-.573,0-1.044-.287-1.044-.623s.467-.623,1.044-.623h142.713c.573,0,1.044.287,1.044.623S1276.145,2072.1,1275.567,2072.1Z" transform="translate(2025.769 -793.557)" fill="#fff"/>
    <path id="Path_46" data-name="Path 46" d="M2200.383,2072.1h-11c-.573,0-1.046-.287-1.046-.623s.469-.623,1.046-.623h11c.573,0,1.044.287,1.044.623S2200.96,2072.1,2200.383,2072.1Z" transform="translate(1120.605 -793.557)" fill="#fff"/>
    <path id="Path_47" data-name="Path 47" d="M2323.285,2072.1h-14.04c-.573,0-1.044-.287-1.044-.623s.467-.623,1.044-.623h14.04c.573,0,1.046.287,1.046.623S2323.862,2072.1,2323.285,2072.1Z" transform="translate(1017.917 -793.557)" fill="#fff"/>
    <path id="Path_48" data-name="Path 48" d="M1222.136,2118.826h-89.281c-.573,0-1.044-.286-1.044-.623s.467-.623,1.044-.623h89.281c.573,0,1.046.286,1.046.623S1222.715,2118.826,1222.136,2118.826Z" transform="translate(2025.769 -833.592)" fill="#4cc9f0"/>
    <path id="Path_49" data-name="Path 49" d="M1864.757,2118.826h-16c-.573,0-1.044-.286-1.044-.623s.467-.623,1.044-.623h16c.573,0,1.046.286,1.046.623S1865.336,2118.826,1864.757,2118.826Z" transform="translate(1412.434 -833.592)" fill="#4cc9f0"/>
    <path id="Path_50" data-name="Path 50" d="M1700.659,2145.7h-43.444c-.573,0-1.044-.286-1.044-.623s.467-.623,1.044-.623h43.444c.573,0,1.046.286,1.046.623S1701.238,2145.7,1700.659,2145.7Z" transform="translate(1576.533 -856.612)" fill="#4cc9f0"/>
    <path id="Path_51" data-name="Path 51" d="M1563.2,2145.7h-8.754c-.573,0-1.046-.286-1.046-.623s.468-.623,1.046-.623h8.754c.573,0,1.046.286,1.046.623S1563.778,2145.7,1563.2,2145.7Z" transform="translate(1664.579 -856.612)" fill="#4cc9f0"/>
    <path id="Path_52" data-name="Path 52" d="M1453.551,2145.7H1444.8c-.573,0-1.046-.286-1.046-.623s.468-.623,1.046-.623h8.755c.573,0,1.044.286,1.044.623S1454.128,2145.7,1453.551,2145.7Z" transform="translate(1758.52 -856.612)" fill="#4cc9f0"/>
    <path id="Path_53" data-name="Path 53" d="M1343.9,2145.7h-8.756c-.573,0-1.044-.286-1.044-.623s.467-.623,1.044-.623h8.756c.573,0,1.044.286,1.044.623S1344.478,2145.7,1343.9,2145.7Z" transform="translate(1852.46 -856.612)" fill="#4cc9f0"/>
    <path id="Path_54" data-name="Path 54" d="M1234.251,2145.7H1225.5c-.573,0-1.046-.286-1.046-.623s.467-.623,1.046-.623h8.755c.573,0,1.045.286,1.045.623S1234.828,2145.7,1234.251,2145.7Z" transform="translate(1946.401 -856.612)" fill="#4cc9f0"/>
    <path id="Path_55" data-name="Path 55" d="M1360.874,2178.366H1225.486c-.573,0-1.046-.286-1.046-.623s.467-.623,1.046-.623h135.388c.573,0,1.046.287,1.046.623S1361.452,2178.366,1360.874,2178.366Z" transform="translate(1946.41 -884.602)" fill="#f72585"/>
    <path id="Path_56" data-name="Path 56" d="M1136.015,2145.7h-3.161c-.573,0-1.044-.286-1.044-.623s.467-.623,1.044-.623h3.161c.573,0,1.045.286,1.045.623S1136.592,2145.7,1136.015,2145.7Z" transform="translate(2025.769 -856.612)" fill="#4cc9f0"/>
    <path id="Path_57" data-name="Path 57" d="M1136.015,2178.366h-3.161c-.573,0-1.044-.286-1.044-.623s.467-.623,1.044-.623h3.161c.573,0,1.045.287,1.045.623S1136.592,2178.366,1136.015,2178.366Z" transform="translate(2025.769 -884.602)" fill="#4cc9f0"/>
    <path id="Path_58" data-name="Path 58" d="M1136.015,2211.036h-3.161c-.573,0-1.044-.279-1.044-.623s.467-.623,1.044-.623h3.161c.573,0,1.045.279,1.045.623S1136.592,2211.036,1136.015,2211.036Z" transform="translate(2025.769 -912.591)" fill="#4cc9f0"/>
    <path id="Path_59" data-name="Path 59" d="M1136.015,2243.706h-3.161c-.573,0-1.044-.279-1.044-.623s.467-.623,1.044-.623h3.161c.573,0,1.045.28,1.045.623S1136.592,2243.706,1136.015,2243.706Z" transform="translate(2025.769 -940.581)" fill="#4cc9f0"/>
    <path id="Path_60" data-name="Path 60" d="M2246.442,2178.366h-18.7c-.573,0-1.046-.286-1.046-.623s.467-.623,1.046-.623h18.7c.573,0,1.044.287,1.044.623S2247.019,2178.366,2246.442,2178.366Z" transform="translate(1087.741 -884.602)" fill="#f72585"/>
    <path id="Path_61" data-name="Path 61" d="M1260.7,2211.036h-37.466c-.573,0-1.046-.279-1.046-.623s.467-.623,1.046-.623H1260.7c.573,0,1.044.279,1.044.623S1261.275,2211.036,1260.7,2211.036Z" transform="translate(1948.337 -912.591)" fill="#f72585"/>
    <path id="Path_62" data-name="Path 62" d="M1260.7,2244.546h-37.466c-.573,0-1.046-.278-1.046-.623s.467-.623,1.046-.623H1260.7c.573,0,1.044.28,1.044.623S1261.275,2244.546,1260.7,2244.546Z" transform="translate(1948.337 -941.301)" fill="#f72585"/>
    <path id="Path_63" data-name="Path 63" d="M1260.7,2277.986h-37.466c-.573,0-1.046-.286-1.046-.623s.467-.623,1.046-.623H1260.7c.573,0,1.044.278,1.044.623S1261.275,2277.986,1260.7,2277.986Z" transform="translate(1948.337 -969.95)" fill="#f72585"/>
    <path id="Path_64" data-name="Path 64" d="M1260.7,2311.456h-37.466c-.573,0-1.046-.279-1.046-.623s.467-.624,1.046-.624H1260.7c.573,0,1.044.278,1.044.624S1261.275,2311.456,1260.7,2311.456Z" transform="translate(1948.337 -998.624)" fill="#f72585"/>
    <path id="Path_65" data-name="Path 65" d="M1733.458,2311.456h-76.244c-.573,0-1.044-.279-1.044-.623s.467-.624,1.044-.624h76.244c.573,0,1.046.278,1.046.624S1734.036,2311.456,1733.458,2311.456Z" transform="translate(1576.533 -998.624)" fill="#fec435"/>
    <path id="Path_66" data-name="Path 66" d="M2003.792,2277.986h-31.037c-.573,0-1.044-.286-1.044-.623s.467-.623,1.044-.623H2003.8c.573,0,1.046.278,1.046.623S2004.369,2277.986,2003.792,2277.986Z" transform="translate(1306.199 -969.95)" fill="#fec435"/>
    <path id="Path_67" data-name="Path 67" d="M2115.707,2243.706h-12.321c-.573,0-1.046-.279-1.046-.623s.469-.623,1.046-.623h12.321c.573,0,1.046.28,1.046.623S2116.284,2243.706,2115.707,2243.706Z" transform="translate(1194.284 -940.581)" fill="#fec435"/>
    <path id="Path_68" data-name="Path 68" d="M2952.7,3667.76l-4.969,14.825,12.956,4.594,5.243-21.55Z" transform="translate(470.011 -2164.944)" fill="#ffceca"/>
    <path id="Path_69" data-name="Path 69" d="M2419.407,2748.86h238.625c1.782,0,3.228,2.606,3.228,5.821v3.822c0,3.215-1.445,5.821-3.228,5.821H2419.407c-1.782,0-3.228-2.606-3.228-5.821v-3.822C2416.18,2751.466,2417.625,2748.86,2419.407,2748.86Z" transform="translate(925.408 -1379.517)" fill="#fec435"/>
    <path id="Path_70" data-name="Path 70" d="M2419.407,2798.421h238.625c1.782,0,3.228-2.606,3.228-5.821v3.377c0,3.215-1.445,5.821-3.228,5.821H2419.407c-1.782,0-3.228-2.606-3.228-5.821V2792.6C2416.18,2795.809,2417.625,2798.421,2419.407,2798.421Z" transform="translate(925.408 -1416.99)" fill="#c41700" opacity="0.5"/>
    <path id="Path_71" data-name="Path 71" d="M2626.3,2865.065l-5.767,134.618h-2.55V2856.8h8.672Z" transform="translate(752.519 -1471.993)" fill="#061e44"/>
    <path id="Path_72" data-name="Path 72" d="M3901.1,2856.8v142.884h-2.516L3892.55,2856.8Z" transform="translate(-339.447 -1471.993)" fill="#061e44"/>
    <path id="Path_73" data-name="Path 73" d="M3519.021,2483.059h-38.5l2.89-2.987a2.4,2.4,0,0,1,1.47-.716l14.891-1.609-11.414-22.151,2.834-16.986h13.827l6.34,39.151,5.3,1.344a2.4,2.4,0,0,1,1.719,1.676Z" transform="translate(13.553 -1113.716)" fill="#4f443a"/>
    <path id="Path_74" data-name="Path 74" d="M3549.188,2556.36l4.317,22.15-6.871.113-11.414-22.151Z" transform="translate(-33.31 -1214.596)" fill="#fec435"/>
    <path id="Path_75" data-name="Path 75" d="M3286.485,2223.625h70.682a4.418,4.418,0,0,0,4.329-3.947l4.752-53.582a3.568,3.568,0,0,0-3.629-3.946h-70.68a4.419,4.419,0,0,0-4.33,3.946l-4.752,53.582A3.568,3.568,0,0,0,3286.485,2223.625Z" transform="translate(182.911 -876.863)" fill="#fec435"/>
    <path id="Path_76" data-name="Path 76" d="M3267.446,2223.625h70.682a4.417,4.417,0,0,0,4.328-3.947l4.752-53.582a3.569,3.569,0,0,0-3.629-3.946H3272.9a4.418,4.418,0,0,0-4.33,3.946l-4.752,53.582A3.569,3.569,0,0,0,3267.446,2223.625Z" transform="translate(199.223 -876.863)" fill="#4cc9f0"/>
    <path id="Path_77" data-name="Path 77" d="M3351.579,2237.453h-74.67l5-55.923h74.671Z" transform="translate(187.992 -893.467)" fill="#000816"/>
    <path id="Path_78" data-name="Path 78" d="M3416.96,2233.666h-40.572c-.165,0-.3-.279-.3-.623s.133-.623.3-.623h40.572c.163,0,.3.279.3.623S3417.123,2233.666,3416.96,2233.666Z" transform="translate(103.021 -937.066)" fill="#fff"/>
    <path id="Path_79" data-name="Path 79" d="M3679.882,2233.666h-3.126c-.165,0-.3-.279-.3-.623s.132-.623.3-.623h3.126c.165,0,.3.279.3.623S3680.047,2233.666,3679.882,2233.666Z" transform="translate(-154.316 -937.066)" fill="#fff"/>
    <path id="Path_80" data-name="Path 80" d="M3714.827,2233.666h-3.99c-.165,0-.3-.279-.3-.623s.132-.623.3-.623h3.99c.165,0,.3.279.3.623S3714.991,2233.666,3714.827,2233.666Z" transform="translate(-183.513 -937.066)" fill="#fff"/>
    <path id="Path_81" data-name="Path 81" d="M3401.769,2280.4h-25.381c-.165,0-.3-.279-.3-.623s.133-.623.3-.623h25.381c.165,0,.3.279.3.623S3401.934,2280.4,3401.769,2280.4Z" transform="translate(103.021 -977.101)" fill="#4cc9f0"/>
    <path id="Path_82" data-name="Path 82" d="M3584.466,2280.4h-4.55c-.164,0-.3-.279-.3-.623s.132-.623.3-.623h4.55c.164,0,.3.279.3.623S3584.63,2280.4,3584.466,2280.4Z" transform="translate(-71.349 -977.101)" fill="#4cc9f0"/>
    <path id="Path_83" data-name="Path 83" d="M3537.809,2307.266h-12.351c-.165,0-.3-.279-.3-.623s.133-.623.3-.623h12.351c.163,0,.3.279.3.623S3537.972,2307.266,3537.809,2307.266Z" transform="translate(-24.692 -1000.121)" fill="#4cc9f0"/>
    <path id="Path_84" data-name="Path 84" d="M3498.718,2307.266h-2.492c-.163,0-.3-.279-.3-.623s.133-.623.3-.623h2.489c.165,0,.3.279.3.623S3498.883,2307.266,3498.718,2307.266Z" transform="translate(0.351 -1000.121)" fill="#4cc9f0"/>
    <path id="Path_85" data-name="Path 85" d="M3467.564,2307.266h-2.488c-.165,0-.3-.279-.3-.623s.132-.623.3-.623h2.488c.165,0,.3.279.3.623S3467.729,2307.266,3467.564,2307.266Z" transform="translate(27.038 -1000.121)" fill="#4cc9f0"/>
    <path id="Path_86" data-name="Path 86" d="M3436.386,2307.266H3433.9c-.165,0-.3-.279-.3-.623s.133-.623.3-.623h2.488c.165,0,.3.279.3.623S3436.551,2307.266,3436.386,2307.266Z" transform="translate(53.751 -1000.121)" fill="#4cc9f0"/>
    <path id="Path_87" data-name="Path 87" d="M3405.217,2307.266h-2.49c-.163,0-.3-.279-.3-.623s.133-.623.3-.623h2.49c.163,0,.3.279.3.623S3405.377,2307.266,3405.217,2307.266Z" transform="translate(80.455 -1000.121)" fill="#4cc9f0"/>
    <path id="Path_88" data-name="Path 88" d="M3441.217,2339.936h-38.49c-.163,0-.3-.279-.3-.623s.133-.623.3-.623h38.49c.165,0,.3.279.3.623S3441.381,2339.936,3441.217,2339.936Z" transform="translate(80.455 -1028.111)" fill="#f72585"/>
    <path id="Path_89" data-name="Path 89" d="M3377.286,2307.266h-.9c-.165,0-.3-.279-.3-.623s.133-.623.3-.623h.9c.163,0,.3.279.3.623S3377.449,2307.266,3377.286,2307.266Z" transform="translate(103.021 -1000.121)" fill="#4cc9f0"/>
    <path id="Path_90" data-name="Path 90" d="M3377.286,2339.936h-.9c-.165,0-.3-.279-.3-.623s.133-.623.3-.623h.9c.163,0,.3.279.3.623S3377.449,2339.936,3377.286,2339.936Z" transform="translate(103.021 -1028.111)" fill="#4cc9f0"/>
    <path id="Path_91" data-name="Path 91" d="M3377.286,2372.606h-.9c-.165,0-.3-.279-.3-.623s.133-.623.3-.623h.9c.163,0,.3.279.3.623S3377.449,2372.606,3377.286,2372.606Z" transform="translate(103.021 -1056.1)" fill="#4cc9f0"/>
    <path id="Path_92" data-name="Path 92" d="M3377.286,2405.276h-.9c-.165,0-.3-.279-.3-.623s.133-.623.3-.623h.9c.163,0,.3.279.3.623S3377.449,2405.276,3377.286,2405.276Z" transform="translate(103.021 -1084.09)" fill="#4cc9f0"/>
    <path id="Path_93" data-name="Path 93" d="M3692.981,2339.936h-5.315c-.165,0-.3-.279-.3-.623s.132-.623.3-.623h5.315c.163,0,.3.279.3.623S3693.145,2339.936,3692.981,2339.936Z" transform="translate(-163.663 -1028.111)" fill="#f72585"/>
    <path id="Path_94" data-name="Path 94" d="M3412.737,2372.606h-10.65c-.163,0-.3-.279-.3-.623s.133-.623.3-.623h10.65c.163,0,.3.279.3.623S3412.9,2372.606,3412.737,2372.606Z" transform="translate(81.003 -1056.1)" fill="#f72585"/>
    <path id="Path_95" data-name="Path 95" d="M3412.737,2406.076h-10.65c-.163,0-.3-.278-.3-.624s.133-.623.3-.623h10.65c.163,0,.3.287.3.623S3412.9,2406.076,3412.737,2406.076Z" transform="translate(81.003 -1084.776)" fill="#f72585"/>
    <path id="Path_96" data-name="Path 96" d="M3412.737,2439.546h-10.65c-.163,0-.3-.278-.3-.623s.133-.623.3-.623h10.65c.163,0,.3.279.3.623S3412.9,2439.546,3412.737,2439.546Z" transform="translate(81.003 -1113.45)" fill="#f72585"/>
    <path id="Path_97" data-name="Path 97" d="M3412.737,2473.025h-10.65c-.163,0-.3-.278-.3-.622s.133-.623.3-.623h10.65c.163,0,.3.278.3.623S3412.9,2473.025,3412.737,2473.025Z" transform="translate(81.003 -1142.133)" fill="#f72585"/>
    <path id="Path_98" data-name="Path 98" d="M3547.133,2473.025h-21.675c-.165,0-.3-.278-.3-.622s.133-.623.3-.623h21.675c.165,0,.3.278.3.623S3547.3,2473.025,3547.133,2473.025Z" transform="translate(-24.692 -1142.133)" fill="#fec435"/>
    <path id="Path_99" data-name="Path 99" d="M3623.982,2439.546h-8.825c-.164,0-.3-.278-.3-.623s.133-.623.3-.623h8.825c.165,0,.3.279.3.623S3624.146,2439.546,3623.982,2439.546Z" transform="translate(-101.541 -1113.45)" fill="#fec435"/>
    <path id="Path_100" data-name="Path 100" d="M3655.8,2405.276h-3.5c-.165,0-.3-.279-.3-.623s.133-.623.3-.623h3.5c.165,0,.3.279.3.623S3655.965,2405.276,3655.8,2405.276Z" transform="translate(-133.36 -1084.09)" fill="#fec435"/>
    <path id="Path_101" data-name="Path 101" d="M2657.93,2483.059h38.5l-2.889-2.989a2.4,2.4,0,0,0-1.469-.717l-14.893-1.609,11.418-22.152-2.827-16.983h-13.827l-6.341,39.151-5.3,1.344a2.4,2.4,0,0,0-1.719,1.676Z" transform="translate(718.292 -1113.716)" fill="#4f443a"/>
    <path id="Path_102" data-name="Path 102" d="M2748.656,2556.36l-4.317,22.15,6.871.113,11.416-22.151Z" transform="translate(644.262 -1214.596)" fill="#fec435"/>
    <path id="Path_103" data-name="Path 103" d="M2621.841,2223.625H2551.16a4.418,4.418,0,0,1-4.33-3.947l-4.752-53.582a3.569,3.569,0,0,1,3.63-3.946h70.681a4.417,4.417,0,0,1,4.328,3.946l4.752,53.582A3.568,3.568,0,0,1,2621.841,2223.625Z" transform="translate(817.559 -876.863)" fill="#fec435"/>
    <path id="Path_104" data-name="Path 104" d="M2640.887,2223.625H2570.2a4.419,4.419,0,0,1-4.33-3.947l-4.752-53.582a3.568,3.568,0,0,1,3.629-3.946h70.682a4.418,4.418,0,0,1,4.328,3.946l4.752,53.582A3.567,3.567,0,0,1,2640.887,2223.625Z" transform="translate(801.248 -876.863)" fill="#4cc9f0"/>
    <path id="Path_105" data-name="Path 105" d="M2579.207,2237.453h74.669l-5-55.923h-74.67Z" transform="translate(790.018 -893.467)" fill="#061e44"/>
    <path id="Path_106" data-name="Path 106" d="M2719.188,2237.546h-40.572c-.165,0-.3-.279-.3-.623s.132-.623.3-.623h40.572c.165,0,.3.278.3.623S2719.353,2237.546,2719.188,2237.546Z" transform="translate(700.823 -940.39)" fill="#fff"/>
    <path id="Path_107" data-name="Path 107" d="M2982.1,2237.546h-3.128c-.163,0-.3-.279-.3-.623s.133-.623.3-.623h3.128c.163,0,.3.278.3.623S2982.267,2237.546,2982.1,2237.546Z" transform="translate(443.495 -940.39)" fill="#fff"/>
    <path id="Path_108" data-name="Path 108" d="M3017.048,2237.546h-3.991c-.163,0-.3-.279-.3-.623s.133-.623.3-.623h3.991c.163,0,.3.278.3.623S3017.211,2237.546,3017.048,2237.546Z" transform="translate(414.298 -940.39)" fill="#fff"/>
    <path id="Path_109" data-name="Path 109" d="M2704,2284.276h-25.381c-.165,0-.3-.279-.3-.623s.132-.623.3-.623H2704c.165,0,.3.278.3.623S2704.162,2284.276,2704,2284.276Z" transform="translate(700.823 -980.425)" fill="#4cc9f0"/>
    <path id="Path_110" data-name="Path 110" d="M2886.686,2284.276h-4.55c-.163,0-.3-.279-.3-.623s.133-.623.3-.623h4.55c.165,0,.3.278.3.623S2886.851,2284.276,2886.686,2284.276Z" transform="translate(526.462 -980.425)" fill="#4cc9f0"/>
    <path id="Path_111" data-name="Path 111" d="M2840.038,2311.146h-12.351c-.165,0-.3-.279-.3-.623s.132-.623.3-.623h12.351c.165,0,.3.278.3.623S2840.2,2311.146,2840.038,2311.146Z" transform="translate(573.11 -1003.446)" fill="#4cc9f0"/>
    <path id="Path_112" data-name="Path 112" d="M2800.956,2311.146h-2.489c-.165,0-.3-.279-.3-.623s.133-.623.3-.623h2.489c.163,0,.3.278.3.623S2801.12,2311.146,2800.956,2311.146Z" transform="translate(598.144 -1003.446)" fill="#4cc9f0"/>
    <path id="Path_113" data-name="Path 113" d="M2769.785,2311.146H2767.3c-.164,0-.3-.279-.3-.623s.133-.623.3-.623h2.488c.165,0,.3.278.3.623S2769.95,2311.146,2769.785,2311.146Z" transform="translate(624.848 -1003.446)" fill="#4cc9f0"/>
    <path id="Path_114" data-name="Path 114" d="M2738.606,2311.146h-2.489c-.165,0-.3-.279-.3-.623s.133-.623.3-.623h2.489c.165,0,.3.278.3.623S2738.771,2311.146,2738.606,2311.146Z" transform="translate(651.561 -1003.446)" fill="#4cc9f0"/>
    <path id="Path_115" data-name="Path 115" d="M2707.436,2311.146h-2.488c-.165,0-.3-.279-.3-.623s.133-.623.3-.623h2.488c.165,0,.3.278.3.623S2707.6,2311.146,2707.436,2311.146Z" transform="translate(678.266 -1003.446)" fill="#4cc9f0"/>
    <path id="Path_116" data-name="Path 116" d="M2743.437,2343.816h-38.489c-.165,0-.3-.279-.3-.623s.133-.623.3-.623h38.489c.165,0,.3.279.3.623S2743.6,2343.816,2743.437,2343.816Z" transform="translate(678.266 -1031.435)" fill="#f72585"/>
    <path id="Path_117" data-name="Path 117" d="M2679.514,2311.146h-.9c-.165,0-.3-.279-.3-.623s.132-.623.3-.623h.9c.165,0,.3.278.3.623S2679.679,2311.146,2679.514,2311.146Z" transform="translate(700.823 -1003.446)" fill="#4cc9f0"/>
    <path id="Path_118" data-name="Path 118" d="M2679.514,2343.816h-.9c-.165,0-.3-.279-.3-.623s.132-.623.3-.623h.9c.165,0,.3.279.3.623S2679.679,2343.816,2679.514,2343.816Z" transform="translate(700.823 -1031.435)" fill="#4cc9f0"/>
    <path id="Path_119" data-name="Path 119" d="M2679.514,2376.486h-.9c-.165,0-.3-.286-.3-.623s.132-.623.3-.623h.9c.165,0,.3.287.3.623S2679.679,2376.486,2679.514,2376.486Z" transform="translate(700.823 -1059.425)" fill="#4cc9f0"/>
    <path id="Path_120" data-name="Path 120" d="M2679.514,2409.156h-.9c-.165,0-.3-.286-.3-.623s.132-.623.3-.623h.9c.165,0,.3.286.3.623S2679.679,2409.156,2679.514,2409.156Z" transform="translate(700.823 -1087.414)" fill="#4cc9f0"/>
    <path id="Path_121" data-name="Path 121" d="M2995.2,2343.816h-5.315c-.163,0-.3-.279-.3-.623s.133-.623.3-.623h5.315c.165,0,.3.279.3.623S2995.366,2343.816,2995.2,2343.816Z" transform="translate(434.149 -1031.435)" fill="#f72585"/>
    <path id="Path_122" data-name="Path 122" d="M2714.957,2376.486h-10.651c-.163,0-.3-.286-.3-.623s.133-.623.3-.623h10.651c.165,0,.3.287.3.623S2715.122,2376.486,2714.957,2376.486Z" transform="translate(678.814 -1059.425)" fill="#f72585"/>
    <path id="Path_123" data-name="Path 123" d="M2714.957,2409.956h-10.651c-.163,0-.3-.279-.3-.623s.133-.623.3-.623h10.651c.165,0,.3.28.3.623S2715.122,2409.956,2714.957,2409.956Z" transform="translate(678.814 -1088.099)" fill="#f72585"/>
    <path id="Path_124" data-name="Path 124" d="M2714.957,2443.426h-10.651c-.163,0-.3-.287-.3-.623s.133-.623.3-.623h10.651c.165,0,.3.287.3.623S2715.122,2443.426,2714.957,2443.426Z" transform="translate(678.814 -1116.774)" fill="#f72585"/>
    <path id="Path_125" data-name="Path 125" d="M2714.957,2476.9h-10.651c-.163,0-.3-.278-.3-.624s.133-.623.3-.623h10.651c.165,0,.3.279.3.623S2715.122,2476.9,2714.957,2476.9Z" transform="translate(678.814 -1145.449)" fill="#f72585"/>
    <path id="Path_126" data-name="Path 126" d="M2849.361,2476.9h-21.675c-.165,0-.3-.278-.3-.624s.132-.623.3-.623h21.675c.165,0,.3.279.3.623S2849.526,2476.9,2849.361,2476.9Z" transform="translate(573.11 -1145.449)" fill="#fec435"/>
    <path id="Path_127" data-name="Path 127" d="M2926.2,2443.426h-8.825c-.163,0-.3-.287-.3-.623s.133-.623.3-.623h8.825c.165,0,.3.287.3.623S2926.366,2443.426,2926.2,2443.426Z" transform="translate(496.27 -1116.774)" fill="#fec435"/>
    <path id="Path_128" data-name="Path 128" d="M2958.021,2409.156h-3.5c-.165,0-.3-.286-.3-.623s.133-.623.3-.623h3.5c.165,0,.3.286.3.623S2958.185,2409.156,2958.021,2409.156Z" transform="translate(464.451 -1087.414)" fill="#fec435"/>
    <path id="Path_129" data-name="Path 129" d="M3659.939,2283.151s-4.282,4.993-4.414,15.642c-.09,7.145-.286,14.711,12.4,15.776,0,0,2.662.176,2.042,5.148s-3.55,7.987-3.107,10.206,12.607-1.421,12.607-1.421.533-15.354,2.928-18.1,10.745-7.367,9.313-13.49-16.658-17.016-22.092-18.46C3663.934,2276.939,3659.939,2283.151,3659.939,2283.151Z" transform="translate(-136.365 -976.298)" fill="#ffe7e5"/>
    <path id="Path_130" data-name="Path 130" d="M3683.15,2287.809s3.636-6.59,10.708-3.064,16.941,8.176,13.333,15.616l6.034-10.238S3691.724,2268.372,3683.15,2287.809Z" transform="translate(-160.047 -977.6)" fill="#f7b7b7"/>
    <path id="Path_131" data-name="Path 131" d="M3418.356,2832.554h-87.6a8.476,8.476,0,0,1-8.467-8.467V2761.08a8.478,8.478,0,0,1,8.467-8.469H3360.5a4.561,4.561,0,0,0,4.394-3.265l27.1-89.863a17.666,17.666,0,0,1,17.019-12.645h28.6a8.467,8.467,0,0,1,8.107,10.913l-27.947,92.713a8.423,8.423,0,0,1-8.11,6.026h-29.747a4.6,4.6,0,0,0-4.585,4.585v63.009a4.6,4.6,0,0,0,4.585,4.584h38.447Zm-87.6-76.064a4.594,4.594,0,0,0-4.584,4.585v63.009a4.593,4.593,0,0,0,4.584,4.584h42.038a8.424,8.424,0,0,1-1.355-4.584v-63a8.479,8.479,0,0,1,8.47-8.469h29.747a4.566,4.566,0,0,0,4.4-3.265L3442,2656.631a4.591,4.591,0,0,0-4.4-5.915h-28.6a13.817,13.817,0,0,0-13.306,9.885l-27.089,89.864a8.418,8.418,0,0,1-8.107,6.017Z" transform="translate(149.114 -1292.112)" fill="#061e44"/>
    <path id="Path_132" data-name="Path 132" d="M3733.373,2769.768h38a6.954,6.954,0,0,0,6.669-4.964l12.771-42.32a4.441,4.441,0,0,0-4.239-5.713h-38.029a6.982,6.982,0,0,0-6.671,4.963l-12.751,42.321a4.442,4.442,0,0,0,4.247,5.714Z" transform="translate(-199.277 -1352.025)" fill="#8e70ee"/>
    <path id="Path_133" data-name="Path 133" d="M3733.368,2769.768h32.83a6.956,6.956,0,0,0,6.67-4.964l12.771-42.32a4.441,4.441,0,0,0-4.24-5.713h-32.824a7.011,7.011,0,0,0-6.7,4.963l-12.751,42.321a4.433,4.433,0,0,0,4.24,5.714Z" transform="translate(-199.276 -1352.025)" fill="#4cc9f0"/>
    <path id="Path_134" data-name="Path 134" d="M3345.654,3269.24h80.073a.483.483,0,0,1,.483.483V3284.1H3345.17v-14.381a.482.482,0,0,1,.484-.484Z" transform="translate(129.511 -1825.343)" fill="#4cc9f0"/>
    <rect id="Rectangle_13" data-name="Rectangle 13" width="88.313" height="8.679" rx="1.51" transform="translate(3471.045 1453.308)" fill="#8e70ee"/>
    <path id="Path_135" data-name="Path 135" d="M3712.267,2832.554H3673.82a8.477,8.477,0,0,1-8.47-8.467v-63.006a8.479,8.479,0,0,1,8.47-8.469h29.747a4.565,4.565,0,0,0,4.4-3.265l27.949-92.715a4.592,4.592,0,0,0-4.4-5.917h-28.6a1.938,1.938,0,1,1,0-3.877h28.6a8.467,8.467,0,0,1,8.107,10.913l-27.947,92.713a8.423,8.423,0,0,1-8.11,6.026H3673.82a4.6,4.6,0,0,0-4.584,4.584v63.009a4.6,4.6,0,0,0,4.584,4.585h38.447a1.938,1.938,0,1,1,0,3.877Z" transform="translate(-144.797 -1292.113)" fill="#061e44"/>
    <path id="Path_136" data-name="Path 136" d="M3283.72,3706.815l.212,15.633,13.747.053-2.176-22.072Z" transform="translate(182.157 -2194.758)" fill="#ffceca"/>
    <path id="Path_137" data-name="Path 137" d="M3031.82,2725.585H2967.7a1.928,1.928,0,0,1-1.928-1.927h0a1.928,1.928,0,0,1,1.928-1.928h64.122a1.928,1.928,0,0,1,1.928,1.928h0A1.929,1.929,0,0,1,3031.82,2725.585Z" transform="translate(454.556 -1356.274)" fill="#4cc9f0"/>
    <path id="Path_138" data-name="Path 138" d="M2919.743,2498.256l-7.666-37.25a1.5,1.5,0,0,1,1.466-1.8h39a1.494,1.494,0,0,1,1.466,1.2l7.554,37.84Z" transform="translate(500.582 -1131.364)" fill="#4cc9f0"/>
    <path id="Path_139" data-name="Path 139" d="M2942.49,2479.01l7.146,33.788h35.371l-7.146-33.788Z" transform="translate(474.501 -1148.328)" fill="#fff"/>
    <path id="Path_140" data-name="Path 140" d="M3028.17,3036.929s-52.532,9.569-55.773,22.865c-5.9,24.225-19.6,71.385-19.6,71.385s6.971,7,17.156,4.8c0,0,26.592-53.511,23.884-69.679,0,0,60.274-.076,63.452-12.751S3028.17,3036.929,3028.17,3036.929Z" transform="translate(465.668 -1626.316)" fill="#061e44"/>
    <path id="Path_141" data-name="Path 141" d="M3284.4,3104s-40.629,3.484-50.573,19.757c-3.092,5.056,2.642,77.969,2.642,77.969a36.1,36.1,0,0,0,18.4.839s4.011-53.529,1.311-69.7c0,0,54.168.43,57.347-12.245S3284.4,3104,3284.4,3104Z" transform="translate(225.686 -1683.777)" fill="#062051"/>
    <path id="Path_142" data-name="Path 142" d="M3700.183,2243.51s-20.487-18.373-32.871-5.731c0,0-5.4,6.523-4.767,15.043,0,0,5.731-10.745,9.238-10.473,7.7.6,19.737,7.913,19.742,11.523s-4.6,11.977-4.6,11.977,6.08-10.172,7.405-5.444-5.529,10.517-5.529,10.517,16.046-3.595,14.183-21.7C3702.979,2249.234,3702.441,2245.34,3700.183,2243.51Z" transform="translate(-142.35 -937.854)" fill="#fec435"/>
    <path id="Path_143" data-name="Path 143" d="M2729.418,3751.681l-.658.716c.2.2.391.406.6.594.287.261.437.56.168.891a.644.644,0,0,1-.991.05c-.3-.226-.589-.456-.882-.686-.252.209-.5.418-.757.626.17.191.327.4.513.573.344.328.6.7.179,1.093s-.8.1-1.12-.23c-.219-.226-.443-.449-.665-.675l-.953.573c.238.3.489.6.708.92a.577.577,0,0,1-.082.834.591.591,0,0,1-.86-.031c-.322-.315-.61-.665-.912-1l-1.108.586a1.882,1.882,0,0,0,.08.239c.246.486,1.015,1,.227,1.5-.728.463-.924-.4-1.272-.782a.779.779,0,0,0-1.2.084c-.143.345.162.573.3.841.2.38.229.736-.178.955s-.716.042-.938-.335c-.158-.268-.342-.521-.516-.781l-1,.4c-.076.321.195.511.312.759.181.384.2.737-.222.956-.383.2-.662,0-.881-.316-.192-.287-.287-.63-.589-.833l-1.023.393c-.082.348.158.6.287.887.169.378.179.737-.238.936s-.706,0-.907-.375c-.169-.321-.36-.629-.542-.943a2.3,2.3,0,0,1-1.146.325,36.82,36.82,0,0,0-3.513,1.139,2.017,2.017,0,0,1-1.068.2c-.205.051-.416.1-.625.143l-1.169.51c.084,0,.185.026.24-.01.152-.1.054-.185-.063-.183a2.082,2.082,0,0,0-1.12.335,1.638,1.638,0,0,1-.808.212h.037c-.143.043-.3.086-.444.131l-.054.03.043.019a1.032,1.032,0,0,1-.633.179h.044l-.468.227.038-.032-.053.049-.891.5.069-.056a.347.347,0,0,1-.094.054c-.1.023-.2.036-.305.053l-.653.45.037-.009v-.043l-.447.376h.024a10.256,10.256,0,0,0-2.9,2.788h43.465q4.026,0,8.049.01c.02-3.325.062-6.65.039-9.976,0-.692.345-1.361.169-2.024a7.313,7.313,0,0,1,.007-3.1,1.262,1.262,0,0,0-.252-1.132c-.208-.217-.084-.38.023-.6a2.512,2.512,0,0,0-.06-2.507l.06.02c-.2-.129-.407-.258-.609-.382a1.426,1.426,0,0,0-.307-.074h-13.987a1.912,1.912,0,0,0-.834.144c-.143.075.076.116.156.143l-.8-.729c-.251.34-.486.692-.762,1.01-.489.563-.821,1.29-1.658,1.492l-.387.444-.024.013v-.026l-.311.467c.226.212.446.43.68.633.337.287.542.619.185,1-.321.348-.662.225-.989-.033C2729.979,3752.072,2729.693,3751.88,2729.418,3751.681Zm18.281,8.942c-.566.9-1.093,1.687-1.559,2.5a.757.757,0,0,1-.964.421c-3.033-.573-6.086-1.058-9.11-1.677a5.92,5.92,0,0,0-4.431.767c-1.391.838-2.844,1.566-4.285,2.315a7.364,7.364,0,0,1-2.936.749,23.157,23.157,0,0,1-3.984-.452.367.367,0,0,1-.308-.259,2.416,2.416,0,0,1-.062-2.373.787.787,0,0,1,1.044-.408,7.633,7.633,0,0,0,5.224-.157,27.687,27.687,0,0,0,3.2-1.755,9.622,9.622,0,0,1,6.9-1.524C2740.151,3759.327,2743.849,3759.981,2747.7,3760.623Z" transform="translate(683.646 -2234.887)" fill="#212020"/>
    <path id="Path_144" data-name="Path 144" d="M2749.125,3888.33q-4.023,0-8.049-.01h-43.461a10.542,10.542,0,0,0-.084,2.881c.062.916.761,1.423,1.841,1.433q4.593.034,9.188.046,19.036.017,38.071.017a5.031,5.031,0,0,0,1.212-.112,1.651,1.651,0,0,0,1.289-1.719A19.2,19.2,0,0,1,2749.125,3888.33Z" transform="translate(684.414 -2355.73)" fill="#fff"/>
    <path id="Path_145" data-name="Path 145" d="M2843.1,3812.454c.174.26.358.513.516.781a.654.654,0,0,0,.938.335c.4-.213.378-.573.178-.955-.144-.264-.451-.5-.3-.841a.779.779,0,0,1,1.2-.084c.348.385.544,1.245,1.272.782.788-.5.02-1.013-.227-1.5a1.965,1.965,0,0,1-.08-.239c-.669-.332-1.092-.219-1.209.584-.1.708-.625.613-1.109.458C2843.391,3811.49,2843.259,3811.555,2843.1,3812.454Z" transform="translate(559.651 -2289.109)" fill="#e7e5ea"/>
    <path id="Path_146" data-name="Path 146" d="M2875.25,3803.1c.3.334.59.684.912,1a.592.592,0,0,0,.86.031.567.567,0,0,0,.082-.834c-.219-.318-.47-.616-.708-.92C2875.75,3802.231,2875.349,3802.44,2875.25,3803.1Z" transform="translate(532.107 -2282.064)" fill="#e7e5ea"/>
    <path id="Path_147" data-name="Path 147" d="M2826.51,3825.5c.308.2.4.552.589.833.219.321.5.514.881.316.43-.219.4-.573.222-.955-.117-.248-.388-.438-.312-.759C2826.978,3824.468,2826.748,3824.567,2826.51,3825.5Z" transform="translate(573.864 -2301.192)" fill="#e7e5ea"/>
    <path id="Path_148" data-name="Path 148" d="M2809.59,3832.623c.182.314.373.622.542.943.2.38.5.573.907.375s.407-.557.238-.935c-.127-.287-.367-.539-.287-.887C2810.335,3831.784,2809.835,3831.863,2809.59,3832.623Z" transform="translate(588.36 -2307.419)" fill="#e7e5ea"/>
    <path id="Path_149" data-name="Path 149" d="M2889.86,3793.668c.222.225.446.448.665.675.321.331.7.619,1.121.23s.164-.765-.179-1.093c-.186-.177-.342-.383-.513-.573C2890.247,3792.691,2889.887,3792.95,2889.86,3793.668Z" transform="translate(519.591 -2273.923)" fill="#e7e5ea"/>
    <path id="Path_150" data-name="Path 150" d="M2914.855,3771.986c.275.2.557.391.823.6.327.258.668.381.989.033.357-.39.152-.716-.185-1-.235-.2-.454-.421-.68-.633C2915.024,3770.9,2914.7,3771.231,2914.855,3771.986Z" transform="translate(498.208 -2255.192)" fill="#e7e5ea"/>
    <path id="Path_151" data-name="Path 151" d="M2902.77,3783.477c.294.229.587.46.882.686a.644.644,0,0,0,.991-.05c.269-.331.122-.63-.167-.891-.209-.189-.4-.4-.6-.595C2902.963,3782.437,2902.777,3782.579,2902.77,3783.477Z" transform="translate(508.53 -2265.116)" fill="#e7e5ea"/>
    <path id="Path_152" data-name="Path 152" d="M2947.938,3750.64c-.08-.031-.305-.072-.156-.143a1.913,1.913,0,0,1,.834-.143q6.993-.009,13.987,0a1.432,1.432,0,0,1,.306.074c.228.25-.04.275-.175.286a9.6,9.6,0,0,1-1.215.1q-6.1.012-12.212,0A2.862,2.862,0,0,1,2947.938,3750.64Z" transform="translate(470.009 -2237.526)" fill="#e7e5ea"/>
    <path id="Path_153" data-name="Path 153" d="M2926.72,3747.474c.837-.2,1.169-.928,1.658-1.492.276-.318.511-.67.762-1.01-.2-.305-.371-.659-.676-.069a2.8,2.8,0,0,1-1.252,1.446C2926.832,3746.533,2926.809,3747.063,2926.72,3747.474Z" transform="translate(488.011 -2232.587)" fill="#e7e5ea"/>
    <path id="Path_154" data-name="Path 154" d="M2776.946,3840.189c1.127-.509,2.348-.748,3.513-1.139.272.077.118.2,0,.251a13.292,13.292,0,0,1-3.473,1.019.092.092,0,0,1-.063-.05A.138.138,0,0,1,2776.946,3840.189Z" transform="translate(616.348 -2313.518)" fill="#e7e5ea"/>
    <path id="Path_155" data-name="Path 155" d="M2750.444,3852a2.093,2.093,0,0,1,1.121-.335c.117,0,.215.082.063.184-.056.036-.156,0-.241.01-.246.258-.573.2-.878.228a.151.151,0,0,1-.079-.021S2750.438,3852.012,2750.444,3852Z" transform="translate(639.045 -2324.322)" fill="#e7e5ea"/>
    <path id="Path_156" data-name="Path 156" d="M2763.866,3848.553l.625-.143c-.1.463-.48.479-.792.361C2763.527,3848.7,2763.723,3848.573,2763.866,3848.553Z" transform="translate(627.734 -2321.537)" fill="#e7e5ea"/>
    <path id="Path_157" data-name="Path 157" d="M2725.178,3862.747c.1-.017.2-.03.305-.053a.354.354,0,0,0,.094-.054l-.069.056c-.123.084-.223.226-.4.143-.106-.049-.067-.162,0-.068C2725.1,3862.777,2725.148,3862.756,2725.178,3862.747Z" transform="translate(660.796 -2333.728)" fill="#e7e5ea"/>
    <path id="Path_158" data-name="Path 158" d="M2734.293,3859.269l.053-.049s-.039.03-.039.031l-.047.043Z" transform="translate(652.898 -2330.799)" fill="#e7e5ea"/>
    <path id="Path_159" data-name="Path 159" d="M2923.86,3767.614v.026l.024-.013.009-.037Z" transform="translate(490.461 -2252.296)" fill="#e7e5ea"/>
    <path id="Path_160" data-name="Path 160" d="M2741.743,3856.368l-.043-.019s.057-.03.054-.03a.348.348,0,0,0,.033.033Z" transform="translate(646.524 -2328.314)" fill="#e7e5ea"/>
    <path id="Path_161" data-name="Path 161" d="M2718.71,3868.81Z" transform="translate(666.22 -2339.015)" fill="#e7e5ea"/>
    <path id="Path_162" data-name="Path 162" d="M3057.56,3753.44l-.06-.02Z" transform="translate(375.967 -2240.156)" fill="#e7e5ea"/>
    <path id="Path_163" data-name="Path 163" d="M2721.437,3866.17v.043l-.037.009Z" transform="translate(663.916 -2336.753)" fill="#e7e5ea"/>
    <path id="Path_164" data-name="Path 164" d="M2744.926,3855.2l-.036,0,.011-.04Z" transform="translate(643.791 -2327.32)" fill="#e7e5ea"/>
    <path id="Path_165" data-name="Path 165" d="M2737.594,3857.6l-.044.008.011-.05Z" transform="translate(650.079 -2329.376)" fill="#e7e5ea"/>
    <path id="Path_166" data-name="Path 166" d="M2875.694,3828.7c-3.85-.638-7.549-1.3-11.265-1.849a9.625,9.625,0,0,0-6.9,1.524,27.568,27.568,0,0,1-3.2,1.755,7.608,7.608,0,0,1-5.223.158.789.789,0,0,0-1.044.408,2.414,2.414,0,0,0,.062,2.372.366.366,0,0,0,.308.259,23.2,23.2,0,0,0,3.984.453,7.4,7.4,0,0,0,2.936-.749c1.441-.749,2.894-1.477,4.285-2.315a5.917,5.917,0,0,1,4.431-.766c3.024.619,6.077,1.1,9.11,1.676a.757.757,0,0,0,.964-.421C2874.6,3830.382,2875.128,3829.6,2875.694,3828.7Z" transform="translate(555.65 -2302.96)" fill="#fff"/>
    <path id="Path_167" data-name="Path 167" d="M3059.4,3817.587l-.658.716c.2.2.392.406.6.595.286.261.43.56.167.891a.645.645,0,0,1-.991.052c-.3-.226-.589-.457-.884-.686l-.755.625c.169.191.325.4.512.573.344.328.6.7.179,1.092s-.8.1-1.121-.231c-.219-.226-.443-.45-.665-.673l-.953.573c.239.305.489.6.708.92a.576.576,0,0,1-.082.834.589.589,0,0,1-.852-.031c-.323-.315-.611-.664-.914-1l-1.106.587a1.564,1.564,0,0,0,.08.239c.247.484,1.013,1,.226,1.5-.729.463-.924-.4-1.274-.782a.776.776,0,0,0-1.2.086c-.151.344.16.573.3.841.2.378.228.735-.179.956s-.716.04-.938-.337c-.157-.268-.342-.52-.514-.781l-1,.4c-.076.321.2.512.312.76.181.384.2.736-.222.956-.383.2-.662,0-.881-.317-.192-.287-.287-.63-.589-.831l-1.022.391c-.081.348.157.6.287.888.169.377.178.736-.239.935s-.707,0-.907-.377c-.167-.319-.36-.629-.541-.943a2.326,2.326,0,0,1-1.146.327,36.294,36.294,0,0,0-3.513,1.139,2.023,2.023,0,0,1-1.067.2c-.206.052-.416.1-.626.143-.391.172-.782.344-1.169.511.084,0,.186.026.241-.011.152-.1.054-.185-.062-.183a2.1,2.1,0,0,0-1.122.337,1.659,1.659,0,0,1-.808.212h.037l-.444.13-.054.03.043.019a1.018,1.018,0,0,1-.632.179l.043-.007-.469.226.039-.031-.053.05-.891.5c.025-.022.047-.039.069-.056a.386.386,0,0,1-.094.055c-.1.021-.2.036-.306.051l-.653.45.039-.009v-.043l-.445.378h.023a10.243,10.243,0,0,0-2.9,2.788h43.464q4.023,0,8.049.01c.018-3.325.062-6.651.037-9.976,0-.692.347-1.36.169-2.023a7.31,7.31,0,0,1,0-3.1,1.256,1.256,0,0,0-.252-1.13c-.208-.218-.083-.38.022-.6a2.492,2.492,0,0,0-.06-2.507l.061.021c-.2-.129-.408-.258-.61-.382a1.521,1.521,0,0,0-.307-.076h-13.987a1.891,1.891,0,0,0-.833.143c-.151.077.074.116.156.143-.267-.244-.534-.489-.8-.731-.251.34-.486.692-.762,1.011-.489.562-.822,1.29-1.659,1.491l-.385.443-.025.014v-.026l-.311.467c.227.21.447.43.68.632.337.293.543.62.185,1-.319.348-.66.225-.989-.032C3059.948,3817.982,3059.666,3817.792,3059.4,3817.587Zm18.282,8.941c-.573.9-1.093,1.688-1.56,2.5a.756.756,0,0,1-.963.421c-3.035-.573-6.088-1.056-9.11-1.676a5.921,5.921,0,0,0-4.433.768c-1.391.837-2.843,1.565-4.284,2.314a7.386,7.386,0,0,1-2.937.749,23.214,23.214,0,0,1-3.983-.451.373.373,0,0,1-.31-.259,2.419,2.419,0,0,1-.061-2.374.789.789,0,0,1,1.044-.408,7.63,7.63,0,0,0,5.223-.157,27.674,27.674,0,0,0,3.2-1.753,9.621,9.621,0,0,1,6.9-1.526c3.709.559,7.41,1.218,11.259,1.855Z" transform="translate(400.932 -2291.346)" fill="#212020"/>
    <path id="Path_168" data-name="Path 168" d="M3079.021,3954.3q-4.024,0-8.049-.01h-43.462a10.556,10.556,0,0,0-.086,2.881c.062.916.761,1.423,1.841,1.433,3.063.023,6.126.044,9.188.046q19.036.017,38.07.019a5.044,5.044,0,0,0,1.212-.113,1.651,1.651,0,0,0,1.29-1.719A18.09,18.09,0,0,1,3079.021,3954.3Z" transform="translate(401.782 -2412.248)" fill="#fff"/>
    <path id="Path_169" data-name="Path 169" d="M3173,3878.427c.172.261.357.513.515.781a.655.655,0,0,0,.938.337c.394-.212.38-.573.179-.955-.143-.264-.451-.5-.3-.841a.778.778,0,0,1,1.2-.086c.35.385.544,1.245,1.274.782.787-.5.02-1.013-.226-1.5a1.556,1.556,0,0,1-.08-.239c-.67-.334-1.093-.22-1.211.583-.1.716-.625.615-1.109.458C3173.287,3877.458,3173.156,3877.528,3173,3878.427Z" transform="translate(277.015 -2345.63)" fill="#e7e5ea"/>
    <path id="Path_170" data-name="Path 170" d="M3205.12,3869.071c.3.335.592.684.914,1a.589.589,0,0,0,.853.031.566.566,0,0,0,.082-.834c-.219-.318-.469-.615-.708-.92C3205.62,3868.2,3205.22,3868.4,3205.12,3869.071Z" transform="translate(249.497 -2338.581)" fill="#e7e5ea"/>
    <path id="Path_171" data-name="Path 171" d="M3156.38,3891.481c.308.2.4.552.589.831.219.321.5.514.881.316.43-.219.4-.573.222-.956-.116-.248-.388-.438-.312-.76C3156.848,3890.451,3156.612,3890.552,3156.38,3891.481Z" transform="translate(291.254 -2357.721)" fill="#e7e5ea"/>
    <path id="Path_172" data-name="Path 172" d="M3139.46,3898.592c.182.314.374.623.542.943.2.38.5.573.907.377s.408-.559.239-.936c-.127-.287-.367-.54-.287-.888C3140.205,3897.754,3139.7,3897.833,3139.46,3898.592Z" transform="translate(305.75 -2363.937)" fill="#e7e5ea"/>
    <path id="Path_173" data-name="Path 173" d="M3219.73,3859.645c.222.224.446.447.665.674.322.332.7.619,1.12.231s.165-.764-.179-1.092c-.186-.178-.342-.384-.511-.573C3220.118,3858.666,3219.757,3858.927,3219.73,3859.645Z" transform="translate(236.98 -2330.447)" fill="#e7e5ea"/>
    <path id="Path_174" data-name="Path 174" d="M3244.766,3837.935c.275.2.557.39.823.6.328.256.669.38.989.031.358-.388.152-.716-.185-1-.233-.2-.454-.421-.68-.632C3244.928,3836.853,3244.609,3837.186,3244.766,3837.935Z" transform="translate(215.564 -2311.694)" fill="#e7e5ea"/>
    <path id="Path_175" data-name="Path 175" d="M3232.639,3849.459c.3.229.588.46.884.687a.645.645,0,0,0,.991-.052c.268-.331.12-.63-.168-.891-.209-.189-.4-.4-.6-.594C3232.835,3848.415,3232.648,3848.556,3232.639,3849.459Z" transform="translate(225.92 -2321.642)" fill="#e7e5ea"/>
    <path id="Path_176" data-name="Path 176" d="M3277.813,3816.616c-.082-.033-.307-.072-.156-.143a1.893,1.893,0,0,1,.833-.143q7-.01,13.987,0a1.545,1.545,0,0,1,.306.076c.228.251-.039.273-.173.287a9.912,9.912,0,0,1-1.215.1q-6.107.011-12.212,0A2.923,2.923,0,0,1,3277.813,3816.616Z" transform="translate(187.395 -2294.049)" fill="#e7e5ea"/>
    <path id="Path_177" data-name="Path 177" d="M3256.59,3813.448c.836-.2,1.17-.93,1.659-1.492.277-.319.511-.672.762-1.011-.2-.3-.373-.659-.678-.069a2.813,2.813,0,0,1-1.252,1.447C3256.7,3812.505,3256.679,3813.035,3256.59,3813.448Z" transform="translate(205.4 -2289.108)" fill="#e7e5ea"/>
    <path id="Path_178" data-name="Path 178" d="M3106.863,3906.189a36.16,36.16,0,0,1,3.513-1.139c.272.076.119.195,0,.25a13.341,13.341,0,0,1-3.473,1.017.087.087,0,0,1-.061-.05A.117.117,0,0,1,3106.863,3906.189Z" transform="translate(333.696 -2370.063)" fill="#e7e5ea"/>
    <path id="Path_179" data-name="Path 179" d="M3080.314,3917.927a2.1,2.1,0,0,1,1.122-.337c.116,0,.214.083.062.183-.054.037-.156.008-.241.011-.246.258-.573.2-.878.227a.131.131,0,0,1-.079-.021S3080.309,3917.948,3080.314,3917.927Z" transform="translate(356.434 -2380.806)" fill="#e7e5ea"/>
    <path id="Path_180" data-name="Path 180" d="M3093.736,3914.523l.626-.143c-.1.463-.481.48-.793.361C3093.4,3914.672,3093.593,3914.543,3093.736,3914.523Z" transform="translate(345.124 -2378.056)" fill="#e7e5ea"/>
    <path id="Path_181" data-name="Path 181" d="M3055.01,3928.726c.1-.016.2-.03.307-.052a.359.359,0,0,0,.093-.055c-.022.017-.044.034-.069.056-.123.083-.224.227-.4.143-.106-.047-.066-.162,0-.069C3054.943,3928.755,3054.986,3928.736,3055.01,3928.726Z" transform="translate(378.217 -2390.255)" fill="#e7e5ea"/>
    <path id="Path_182" data-name="Path 182" d="M3064.172,3925.24l.053-.05-.039.031-.046.043Z" transform="translate(370.279 -2387.317)" fill="#e7e5ea"/>
    <path id="Path_183" data-name="Path 183" d="M3253.73,3833.586v.025l.026-.014.008-.038Z" transform="translate(207.851 -2308.814)" fill="#e7e5ea"/>
    <path id="Path_184" data-name="Path 184" d="M3071.583,3922.339l-.043-.019s.057-.03.054-.03a.38.38,0,0,0,.034.034Z" transform="translate(363.939 -2384.833)" fill="#e7e5ea"/>
    <path id="Path_185" data-name="Path 185" d="M3048.443,3934.777h0Z" transform="translate(383.747 -2395.531)" fill="#e7e5ea"/>
    <path id="Path_186" data-name="Path 186" d="M3387.432,3819.411l-.062-.021Z" transform="translate(93.357 -2296.675)" fill="#e7e5ea"/>
    <path id="Path_187" data-name="Path 187" d="M3051.3,3932.14v.043l-.039.008Z" transform="translate(381.313 -2393.271)" fill="#e7e5ea"/>
    <path id="Path_188" data-name="Path 188" d="M3074.8,3921.165l-.037.006.011-.041Z" transform="translate(361.181 -2383.839)" fill="#e7e5ea"/>
    <path id="Path_189" data-name="Path 189" d="M3067.473,3923.573l-.043.007.012-.05Z" transform="translate(367.46 -2385.895)" fill="#e7e5ea"/>
    <path id="Path_190" data-name="Path 190" d="M3205.565,3894.667c-3.849-.638-7.55-1.289-11.267-1.85a9.621,9.621,0,0,0-6.9,1.526,27.6,27.6,0,0,1-3.2,1.753,7.607,7.607,0,0,1-5.223.158.791.791,0,0,0-1.045.408,2.419,2.419,0,0,0,.062,2.374.373.373,0,0,0,.31.259,23.211,23.211,0,0,0,3.983.451,7.409,7.409,0,0,0,2.937-.749c1.441-.75,2.893-1.477,4.283-2.314a5.92,5.92,0,0,1,4.433-.768c3.023.62,6.076,1.1,9.11,1.676a.75.75,0,0,0,.963-.421C3204.472,3896.354,3205,3895.569,3205.565,3894.667Z" transform="translate(273.04 -2359.479)" fill="#fff"/>
    <path id="Path_191" data-name="Path 191" d="M3427.148,2606.89s-2.751,4.778-14.377,4.778l-3.8,2.419c-1.6,6.212-8.361,26.513-8.361,26.513s-2.732-4.148-12.229-15.685c0,0-.465-6.324-4.193-7.123s-8.053-.2-10.118,3.063c0,0,.067,1.094,2.264,2.61,0,0-.466,1.249,2.463,2.115s5.125,1.066,6.523,2.93,6.333,20.1,14.854,23.9l15.9-24.825Z" transform="translate(104.752 -1257.887)" fill="#ffe7e5"/>
    <path id="Path_192" data-name="Path 192" d="M3519.1,2604.32s-3.5,1.546-12.408,1.28c0,0-3.7-.1-7.389,7.626a99.026,99.026,0,0,1-6.99,12.48s4.7,5.337,8.609,6.579c0,0-9.94,22.808-19.524,33.281,0,0,3.55,6.214,28.755,15,0,0,15.265,4.441,16.507,12.69a24.073,24.073,0,0,0,5.059-9.762c1.6-6.123,12.248-29.466,12.248-29.466l2.579-10.473,3.017,5.234s8.609-1.772,11.891-8.517c0,0-9.675-21.92-13.223-26.891s-13.632-3.8-17.732-9.49C3530.5,2603.89,3517.49,2612.942,3519.1,2604.32Z" transform="translate(12.799 -1255.317)" fill="#f72585"/>
    <path id="Path_193" data-name="Path 193" d="M3766.426,2792.17l5.325,12.69-3.166,11.771-2.532,5.657s-17.381,1.121-21.287-3.228,16.333.622,18.549-12.692S3766.426,2792.17,3766.426,2792.17Z" transform="translate(-212.409 -1416.622)" fill="#a7004c"/>
    <path id="Path_194" data-name="Path 194" d="M3596.316,2862.664a15.085,15.085,0,0,0,1.256,6.093,6.93,6.93,0,0,0,6,4.28,7.421,7.421,0,0,0,6.338-2.036,9.154,9.154,0,0,0,2.427-5.095c.242-1.516.252-3.074.38-4.612a1.544,1.544,0,0,0-.98-1.685,22.5,22.5,0,0,0-3.152-1.074,19.489,19.489,0,0,0-6.631-.246,12.267,12.267,0,0,0-4.533,1.229,1.762,1.762,0,0,0-1.106,1.74C3596.329,2861.727,3596.316,2862.2,3596.316,2862.664Zm15.595-2.079a.788.788,0,0,1-.321.96,5.161,5.161,0,0,1-1.236.62,21.7,21.7,0,0,1-10.635.275,8.994,8.994,0,0,1-2.149-.8.675.675,0,0,1-.357-1.054l.546.75a2.945,2.945,0,0,1,2.17-1.342,18.984,18.984,0,0,1,9.087-.024,3.172,3.172,0,0,1,2.327,1.443Z" transform="translate(-85.649 -1473.127)" fill="#fff"/>
    <path id="Path_195" data-name="Path 195" d="M3705.644,2888.08a6.764,6.764,0,0,0-.086,1.146.767.767,0,0,0,.331.529,1.44,1.44,0,0,1,.86,1.853,2.123,2.123,0,0,1-1.35,1.617,1.334,1.334,0,0,0-.944,1.01,6.685,6.685,0,0,1-.345.832c1.97.347,4.165-1.851,4.186-4.139a2.443,2.443,0,0,0-1.225-2.428A7.955,7.955,0,0,0,3705.644,2888.08Z" transform="translate(-178.004 -1498.792)" fill="#fff"/>
    <path id="Path_196" data-name="Path 196" d="M3616.513,2868.388l-.563.827a3.161,3.161,0,0,0-2.327-1.443,18.986,18.986,0,0,0-9.1.023,2.955,2.955,0,0,0-2.17,1.343l-.546-.751a.675.675,0,0,0,.357,1.055,9.409,9.409,0,0,0,2.149.8,21.751,21.751,0,0,0,10.635-.275,5.181,5.181,0,0,0,1.247-.622A.791.791,0,0,0,3616.513,2868.388Z" transform="translate(-90.251 -1480.929)"/>
    <path id="Path_197" data-name="Path 197" d="M3597.913,2692.74s-1.249,10.961-3.8,15.665c0,0-3.053-1.206-3.884-2.195S3597.913,2692.74,3597.913,2692.74Z" transform="translate(-80.389 -1331.438)" fill="#a7004c"/>
    <path id="Path_198" data-name="Path 198" d="M3751.618,2877.7l1.344,3.094s-20.057.466-25.738-2.962-11.8-4.671-11-1.92-1.242,8.431.976,9.675,8.52-.977,11.982,0c3.176.9,23.907,7.618,35.122,2.964a4.047,4.047,0,0,0,2.38-4.68c-.587-2.436-1.994-6.447-5.31-12.5l-1.1,1.2a16.975,16.975,0,0,1-6.913,4.529Z" transform="translate(-188.295 -1484.475)" fill="#ffe7e5"/>
    <path id="Path_199" data-name="Path 199" d="M3972.528,2879.72s-.991,8.6-3.553,8.6a14.239,14.239,0,0,1-3.751-.365l-1.344-3.094S3969.659,2883.41,3972.528,2879.72Z" transform="translate(-400.558 -1491.629)" fill="#f7b7b7"/>
    <path id="Path_200" data-name="Path 200" d="M3746.79,2529.643s3.37.306,5.106-.559-3.636,4.387-3.636,4.387A4.162,4.162,0,0,0,3746.79,2529.643Z" transform="translate(-214.57 -1191.146)" fill="#f7b7b7"/>
    <path id="Path_210" data-name="Path 210" d="M2564.023,1809.372a17.6,17.6,0,1,0-10.867,16.265l5.067,5.067v-8.274a17.564,17.564,0,0,0,5.8-13.059Z" transform="translate(855.356 -552.428)" fill="#f72585"/>
    <path id="Path_218" data-name="Path 218" d="M3223.886,2217.84H3201a3.246,3.246,0,0,0-3.246,3.246v13.7a3.246,3.246,0,0,0,3.246,3.247l-1.4,6.447h2.449l6.973-6.447h14.864a3.245,3.245,0,0,0,3.245-3.247v-13.7A3.245,3.245,0,0,0,3223.886,2217.84Z" transform="translate(255.811 -924.575)" fill="#020230"/>
    <path id="Path_219" data-name="Path 219" d="M3206.795,2217.84h-22.888a3.245,3.245,0,0,0-3.247,3.246v13.705a3.245,3.245,0,0,0,3.247,3.247h1.053v6.447l6.973-6.447h14.863a3.245,3.245,0,0,0,3.247-3.247v-13.7A3.245,3.245,0,0,0,3206.795,2217.84Z" transform="translate(270.452 -924.575)" fill="#0c0c61"/>
    <path id="Path_224" data-name="Path 224" d="M3397.663,1869.784a14.009,14.009,0,1,0-15.8,13.9l1.883,5.981h2.185l1.885-6.493A14.016,14.016,0,0,0,3397.663,1869.784Z" transform="translate(69.884 -649.991)" fill="#e9a153"/>
    <path id="Path_225" data-name="Path 225" d="M3382.453,1869.784a14.009,14.009,0,1,0-15.8,13.9l4.067,5.981,1.886-6.493A14.016,14.016,0,0,0,3382.453,1869.784Z" transform="translate(82.916 -649.991)" fill="#fec435"/>
    <g id="Group_17" data-name="Group 17" transform="translate(3288.771 1327.126)">
      <path id="Path_229" data-name="Path 229" d="M2365.748,2070.74h-15.911a2.256,2.256,0,0,0-2.256,2.257v15.911a2.256,2.256,0,0,0,2.256,2.256h7.946l4.342,5.769h2.292v-5.769h1.327a2.256,2.256,0,0,0,2.256-2.256V2073A2.257,2.257,0,0,0,2365.748,2070.74Z" transform="translate(-2345.285 -2070.74)" fill="#e9a153"/>
      <path id="Path_230" data-name="Path 230" d="M2349.726,2070.74h-15.911a2.257,2.257,0,0,0-2.255,2.257v15.911a2.257,2.257,0,0,0,2.255,2.256h7.946l6.639,5.769v-5.769h1.326a2.257,2.257,0,0,0,2.257-2.256V2073A2.257,2.257,0,0,0,2349.726,2070.74Z" transform="translate(-2331.56 -2070.74)" fill="#fec435"/>
      <path id="Union_1" data-name="Union 1" d="M12.641,14.359,9.255,10.976a1.218,1.218,0,0,1-.29-1.253L7.718,8.475a4.757,4.757,0,1,1,.758-.759L9.724,8.965a1.215,1.215,0,0,1,1.249.292l3.386,3.384a1.216,1.216,0,0,1-1.719,1.719ZM2.157,2.151a3.689,3.689,0,1,0,2.6-1.077A3.683,3.683,0,0,0,2.157,2.151Z" transform="translate(3.063 3.076)" fill="#020230"/>
    </g>
    <g id="Group_15" data-name="Group 15" transform="translate(3282.641 1446.512)">
      <path id="Path_233" data-name="Path 233" d="M823.984,3457.032a33.746,33.746,0,0,0-7.383-3.785,64.9,64.9,0,0,0-10.709-2.836c-6.893-1.29-16.906-1.979-16.893-3.466,0-.692,2.406-1.474,5.861-2.05a44.993,44.993,0,0,1,12.086-.353,28.493,28.493,0,0,1,12,4.189,20.539,20.539,0,0,1,6.565,6.722Z" transform="translate(-786.129 -3415.718)" fill="#ffdcdc"/>
      <path id="Path_234" data-name="Path 234" d="M842.776,3471.123c-3.815-4.139-9.305-6.734-15.006-8.023-5.745-1.31-11.748-1.393-17.641-1.289" transform="translate(-804.232 -3430.707)" fill="#fec435"/>
      <path id="Path_240" data-name="Path 240" d="M810.711,3331.288a31.02,31.02,0,0,1-5.069-4.486c-1.62-1.754-3.152-3.7-4.688-5.587a53.785,53.785,0,0,0-4.936-5.414,63.124,63.124,0,0,0-6.352-5.2,123.394,123.394,0,0,0-13.49-8.106c-4.285-2.278-7.491-4.066-7.2-5.065.277-.938,3.994-1.077,9.065-.136a50.862,50.862,0,0,1,8.274,2.275,45.23,45.23,0,0,1,8.31,4.062,35.966,35.966,0,0,1,7.6,6.393,33.165,33.165,0,0,1,4.883,7.262c1.166,2.345,2.067,4.494,2.95,6.447a42.605,42.605,0,0,0,2.746,5.206Z" transform="translate(-768.96 -3289.233)" fill="#fec435"/>
      <path id="Path_241" data-name="Path 241" d="M837.17,3341.375c-3.183-3.23-5.254-7.02-7.51-10.529q-.85-1.321-1.755-2.59c-.6-.85-1.289-1.629-1.937-2.448a43.3,43.3,0,0,0-4.5-4.393,53.257,53.257,0,0,0-10.745-6.808A84.207,84.207,0,0,0,798.76,3310" transform="translate(-794.491 -3300.672)" fill="#ffe6e6"/>
      <path id="Path_248" data-name="Path 248" d="M1026.279,3284.2c-.848-5.136-1.938-12.482-2.606-21.389-.286-3.747-.573-8.132-.716-11.636s-.073-6.125.646-6.281c.693-.152,2.006,2.149,3.246,5.549a62.167,62.167,0,0,1,2.936,11.87,55.5,55.5,0,0,1-1.254,21.848Z" transform="translate(-986.515 -3244.89)" fill="#fec435"/>
      <path id="Path_252" data-name="Path 252" d="M1065,3297.443a87.809,87.809,0,0,1,4.092-22.252c2.427-7.53,6.776-17.109,8.2-16.619,1.394.474-.222,10.694-2.186,18.537a97.693,97.693,0,0,1-7.828,20.791Z" transform="translate(-1022.587 -3256.596)" fill="#fec435"/>
      <path id="Path_254" data-name="Path 254" d="M1031.39,3456.592a24.764,24.764,0,0,1,7.391-8.1,41.752,41.752,0,0,1,12.168-6.17,44.511,44.511,0,0,1,6.4-1.466,49.543,49.543,0,0,1,6.136-.491,41.587,41.587,0,0,0,4.486-.341c1.156-.162,1.948-.3,2.165.024.2.3-.216,1.1-1.289,2a15.377,15.377,0,0,1-4.607,2.4c-1.873.642-3.771,1.256-5.633,1.891-1.933.661-3.887,1.4-5.712,2.115-4.185,1.639-7.971,3.255-11.34,4.774a36.774,36.774,0,0,0-8.231,4.728Z" transform="translate(-993.792 -3411.921)" fill="#fec435"/>
      <path id="Path_255" data-name="Path 255" d="M1039,3468.085a27.623,27.623,0,0,1,7.549-6.229,63.319,63.319,0,0,1,8.533-4.287,64.221,64.221,0,0,1,8.994-2.943c1.527-.381,3.059-.685,4.61-.957a33.917,33.917,0,0,0,4.772-1.07" transform="translate(-1000.312 -3422.842)" fill="#ffdcdc"/>
      <path id="Path_262" data-name="Path 262" d="M930.8,3505.22h31.543a1.06,1.06,0,0,1,1.06,1.06v38.292a2.722,2.722,0,0,1-2.722,2.722h-28.56a2.321,2.321,0,0,1-2.321-2.321v-38.751A1,1,0,0,1,930.8,3505.22Z" transform="translate(-906.757 -3467.924)" fill="#4cc9f0"/>
      <path id="Path_263" data-name="Path 263" d="M935.236,3536.23V3510a4.781,4.781,0,0,1,4.781-4.781h-5.464A4.782,4.782,0,0,0,929.77,3510v26.229a11.066,11.066,0,0,0,11.066,11.066H946.3a11.066,11.066,0,0,1-11.065-11.064Z" transform="translate(-906.731 -3467.924)" fill="#0680a7"/>
      <rect id="Rectangle_15" data-name="Rectangle 15" width="41.012" height="7.675" rx="3" transform="translate(18.984 35.729)" fill="#fec435"/>
    </g>
    <path id="Path_264" data-name="Path 264" d="M3679.244,965.314c.52-.34,1.04-.017,1.562,0-.019,5.854-.053,32.054-.053,37.908,0,4.522.064,9.044.067,13.566q.015,25.754-.017,51.509c0,1.2.229,1.719,1.549,1.953,2.967.512,4.22,2.179,4.283,5.2.009.391.02.781.024,1.171.023,2.254,0,2.322,2.059,2.838a40.835,40.835,0,0,1,12.5,5.874,34.255,34.255,0,0,1,11.1,11.676,30,30,0,0,1,3.295,8.58c.144.645.115,1.337.815,1.835.483.344.2.874-.412.964a9.964,9.964,0,0,1-1.4.026h-69.759c-.477,0-1.081.234-1.381-.345s.3-.736.6-1.054c.188-.2.19-.582.252-.887,1.647-8.055,6.017-14.365,12.464-19.315a44.723,44.723,0,0,1,15.713-7.765c.676-.183.98-.448.92-1.179-.066-.775-.018-1.56-.016-2.341,0-3.1,1.231-4.728,4.314-5.282,1.258-.229,1.563-.669,1.559-1.917q-.07-24.6-.014-49.191c.013-4.809.09-9.623.062-14.427C3679.282,998.358,3679.335,971.662,3679.244,965.314Z" transform="translate(-152.433 122)" fill="url(#linear-gradient)"/>
    <path id="Path_283" data-name="Path 283" d="M12.54,20.222C11.611,18.612,7.763,12.2,7.763,12.2a2.4,2.4,0,0,1,4.124-2.463l2.871,4.807,3.013-4.7a2.438,2.438,0,0,1,4.273,0c.918,1.573,4.777,8.033,4.777,8.033A2.4,2.4,0,1,1,22.7,20.342l-2.871-4.806s-1.832,2.85-2.992,4.686A2.43,2.43,0,0,1,12.54,20.222Zm13.725-7.369a2.821,2.821,0,1,1,2.425,1.375A2.822,2.822,0,0,1,26.265,12.852Z" transform="translate(3149.111 1206.616)" fill="#fff"/>
    <path id="Path_284" data-name="Path 284" d="M8.4,10.793c-.178-.308-.913-1.534-.913-1.534a.459.459,0,1,1,.788-.471l.549.919.576-.9a.466.466,0,0,1,.817,0c.176.3.913,1.536.913,1.536a.459.459,0,1,1-.788.471L9.795,9.9s-.35.545-.572.9A.465.465,0,0,1,8.4,10.793Zm2.624-1.409a.539.539,0,1,1,.464.263A.54.54,0,0,1,11.026,9.384Z" transform="translate(3371.905 1282.915)" fill="#fff"/>
    <path id="Path_285" data-name="Path 285" d="M8.4,10.793c-.178-.308-.913-1.534-.913-1.534a.459.459,0,1,1,.788-.471l.549.919.576-.9a.466.466,0,0,1,.817,0c.176.3.913,1.536.913,1.536a.459.459,0,1,1-.788.471L9.795,9.9s-.35.545-.572.9A.465.465,0,0,1,8.4,10.793Zm2.624-1.409a.539.539,0,1,1,.464.263A.54.54,0,0,1,11.026,9.384Z" transform="translate(3472.619 1281.898)" fill="#fff"/>
  </g>
</svg>
