<svg xmlns="http://www.w3.org/2000/svg" width="29.104" height="29.104" viewBox="0 0 29.104 29.104">
  <path id="MenuClaims" d="M445,14.552A14.552,14.552,0,1,1,459.551,29.1,14.55,14.55,0,0,1,445,14.552Zm2.286,0A12.266,12.266,0,1,0,459.551,2.286,12.258,12.258,0,0,0,447.285,14.552Zm11.466,7.2a1.036,1.036,0,0,1-.343-.8,1.1,1.1,0,0,1,.343-.8,1.175,1.175,0,0,1,1.6,0,1.036,1.036,0,0,1,.343.8,1.1,1.1,0,0,1-.343.8,1.036,1.036,0,0,1-.8.343A1.268,1.268,0,0,1,458.752,21.751Zm-.343-4.761V8.152a1.143,1.143,0,1,1,2.285,0V16.99a1.143,1.143,0,0,1-2.285,0Z" transform="translate(-445)" fill="#292562"/>
</svg>
