<svg xmlns="http://www.w3.org/2000/svg" width="52" height="52" viewBox="0 0 52 52">
  <g id="Group_850" data-name="Group 850" transform="translate(-390 -731)">
    <circle id="Ellipse_10" data-name="Ellipse 10" cx="26" cy="26" r="26" transform="translate(390 731)" fill="#8e70ee" opacity="0.2"/>
    <circle id="Ellipse_11" data-name="Ellipse 11" cx="19" cy="19" r="19" transform="translate(397 738)" fill="#fff"/>
    <g id="Polygon_3" data-name="Polygon 3" transform="translate(425 748) rotate(90)" fill="none">
      <path d="M8.159,1.308a1,1,0,0,1,1.682,0L17.01,12.459A1,1,0,0,1,16.168,14H1.832A1,1,0,0,1,.99,12.459Z" stroke="none"/>
      <path d="M 8.999999046325684 3.698513031005859 L 3.663331985473633 11.99999809265137 L 14.33666801452637 11.99999809265137 L 8.999999046325684 3.698513031005859 M 9 0.8492584228515625 C 9.322179794311523 0.8492584228515625 9.644359588623047 1.002338409423828 9.841179847717285 1.308498382568359 L 17.0095100402832 12.45923805236816 C 17.43733978271484 13.12475776672363 16.95949935913086 13.99999809265137 16.1683292388916 13.99999809265137 L 1.831659317016602 13.99999809265137 C 1.040500640869141 13.99999809265137 0.5626602172851563 13.12475776672363 0.9904899597167969 12.45923805236816 L 8.158820152282715 1.308498382568359 C 8.355640411376953 1.002338409423828 8.677820205688477 0.8492584228515625 9 0.8492584228515625 Z" stroke="none" fill="#8e70ee"/>
    </g>
  </g>
</svg>
