<svg xmlns="http://www.w3.org/2000/svg" width="70" height="37.637" viewBox="0 0 70 37.637">
  <path id="Path_6" data-name="Path 6" d="M22.294,42.443c-2.7-4.676-13.882-23.319-13.882-23.319A6.98,6.98,0,1,1,20.4,11.966l8.344,13.97L37.5,12.287a7.084,7.084,0,0,1,12.419,0C52.583,16.858,63.8,35.633,63.8,35.633a6.979,6.979,0,1,1-11.984,7.158L43.471,28.823s-5.326,8.284-8.694,13.619S24.994,47.119,22.294,42.443ZM62.18,21.027a8.2,8.2,0,1,1,7.048,4A8.2,8.2,0,0,1,62.18,21.027Z" transform="translate(-7.423 -8.564)" fill="#8e70ee"/>
</svg>
