<svg xmlns="http://www.w3.org/2000/svg" width="24.564" height="24.959" viewBox="0 0 24.564 24.959">
  <g id="search" transform="translate(-5.7 -5)">
    <path id="Path_450" data-name="Path 450" d="M23.259,14.5a7.959,7.959,0,1,0,7.959,7.959A7.977,7.977,0,0,0,23.259,14.5Z" transform="translate(-6.938 -6.865)" fill="none"/>
    <path id="Path_451" data-name="Path 451" d="M25.057,22.249a10.975,10.975,0,1,0-2.579,2.413l.055.055,4.714,4.714a1.814,1.814,0,0,0,1.248.527,1.7,1.7,0,0,0,1.248-.527,1.758,1.758,0,0,0,0-2.5ZM16.46,23A7.238,7.238,0,1,1,23.7,15.76,7.243,7.243,0,0,1,16.46,23Z" fill="#adadb8"/>
  </g>
</svg>
