<svg xmlns="http://www.w3.org/2000/svg" width="29.646" height="29.606" viewBox="0 0 29.646 29.606">
  <path id="shedzena" d="M31.208,8.476h0A.984.984,0,0,0,30.319,8L12.382,7.209A1.149,1.149,0,0,0,12.3,9.5l16.468.713L25.6,20.352H11.261L8.671,5.783a1.136,1.136,0,0,0-.7-.871L3.645,3.171A1.116,1.116,0,0,0,2.176,3.8a1.2,1.2,0,0,0,.619,1.5l3.75,1.5L9.212,21.7a1.132,1.132,0,0,0,1.121.95h.155L9.56,25.3a1.206,1.206,0,0,0,.116,1.029.935.935,0,0,0,.773.435h.5a3.517,3.517,0,0,0-.85,2.257,3.286,3.286,0,1,0,5.721-2.257h5.335a3.517,3.517,0,0,0-.85,2.257,3.286,3.286,0,1,0,5.721-2.257h.387a.982.982,0,0,0,.966-1.109.969.969,0,0,0-.966-.99H11.879l.7-1.979h13.84A1.129,1.129,0,0,0,27.5,21.9L31.363,9.544A1.444,1.444,0,0,0,31.208,8.476ZM13.426,30.329a1.386,1.386,0,1,1,1.353-1.386A1.386,1.386,0,0,1,13.426,30.329Zm10.206,0a1.386,1.386,0,1,1,1.353-1.386A1.386,1.386,0,0,1,23.631,30.329Z" transform="translate(-1.904 -2.932)" fill="#fff" stroke="#fff" stroke-width="0.3"/>
</svg>
