<svg xmlns="http://www.w3.org/2000/svg" width="31.997" height="31.004" viewBox="0 0 31.997 31.004">
  <path id="Subtraction_3" data-name="Subtraction 3" d="M30,31H2a2,2,0,0,1-2-2V2A2,2,0,0,1,2,0H30a2,2,0,0,1,2,2V29A2,2,0,0,1,30,31ZM12.726,12.766a.712.712,0,0,0-.722.7v2.743a.691.691,0,0,0,.2.516.737.737,0,0,0,.522.216H13.95a.21.21,0,0,1,.213.206v7.491a.713.713,0,0,0,.723.7H17.7a.712.712,0,0,0,.722-.7V17.143a.21.21,0,0,1,.213-.206h2.044a.719.719,0,0,0,.714-.6l.473-2.743a.68.68,0,0,0-.155-.585.731.731,0,0,0-.556-.251h-2.4a.331.331,0,0,1-.336-.325v-1.75a.616.616,0,0,1,.186-.52.667.667,0,0,1,.46-.184.676.676,0,0,1,.076,0h2.134a.712.712,0,0,0,.722-.7V6.511a.712.712,0,0,0-.722-.7H18.742a4.766,4.766,0,0,0-3.505,1.183,4.025,4.025,0,0,0-1.069,2.977V12.56a.21.21,0,0,1-.212.206Z" transform="translate(-0.004 0.003)" fill="#292562"/>
</svg>
