<svg xmlns="http://www.w3.org/2000/svg" width="31.5" height="31.5" viewBox="0 0 31.5 31.5">
  <path id="twitter-square-brands" d="M28.125,32H3.375A3.376,3.376,0,0,0,0,35.375v24.75A3.376,3.376,0,0,0,3.375,63.5h24.75A3.376,3.376,0,0,0,31.5,60.125V35.375A3.376,3.376,0,0,0,28.125,32ZM24.687,43.166c.014.2.014.4.014.6a13.031,13.031,0,0,1-13.12,13.12A13.06,13.06,0,0,1,4.5,54.816a9.716,9.716,0,0,0,1.111.056A9.246,9.246,0,0,0,11.334,52.9a4.618,4.618,0,0,1-4.31-3.2,4.97,4.97,0,0,0,2.081-.084,4.612,4.612,0,0,1-3.691-4.528v-.056A4.609,4.609,0,0,0,7.5,45.62,4.6,4.6,0,0,1,5.442,41.78a4.554,4.554,0,0,1,.626-2.327,13.094,13.094,0,0,0,9.506,4.823,4.621,4.621,0,0,1,7.868-4.212,9.037,9.037,0,0,0,2.925-1.111,4.6,4.6,0,0,1-2.025,2.538A9.177,9.177,0,0,0,27,40.775,9.706,9.706,0,0,1,24.687,43.166Z" transform="translate(0 -32)" fill="#ee2a7b"/>
</svg>
