<?xml version="1.0" encoding="utf-8"?>
<!-- Generator: Adobe Illustrator 17.1.0, SVG Export Plug-In . SVG Version: 6.00 Build 0)  -->
<!DOCTYPE svg PUBLIC "-//W3C//DTD SVG 1.1//EN" "http://www.w3.org/Graphics/SVG/1.1/DTD/svg11.dtd">
<svg version="1.1" id="Layer_1" xmlns="http://www.w3.org/2000/svg" xmlns:xlink="http://www.w3.org/1999/xlink" x="0px" y="0px"
	 viewBox="0 0 1266 129" enable-background="new 0 0 1266 129" xml:space="preserve">
<path fill="#FFFFFF" d="M476.3,76.8l0.4,12.4v1.1v0.4l-0.4-0.4l-0.7-0.7c-0.4,0-6-6.4-8.8-8.8L381.4,3v18l108.1,98.5h0.4V4.4h-13.4
	V76.8z"/>
<polygon fill="#FFFFFF" points="381.7,118.1 395.1,118.1 395.1,65.9 381.7,53.5 "/>
<path fill="#FFFFFF" d="M341.5,76.8l0.4,12.4v1.1v0.4l-0.4-0.4l-0.7-0.7c0,0-6-6.4-8.8-8.8L246.8,3v18l108.1,98.5V4.4h-13.4V76.8z"
	/>
<path fill="#FFFFFF" d="M61.1,2.3c-15.9,0-30.4,6.4-41.7,17.3C8.5,30.9,2.1,45.7,2.1,61.3v0.4c0,15.9,6.4,30.7,17.3,41.7
	c10.9,11.3,25.8,17.3,41.7,17.3c9.5,0,17.7-3.2,23-5.6c6.7-3.2,10.9-6.7,13.1-8.8V89.2c-8.8,11.3-22.2,17.7-36,17.7
	c-25.1,0-45.6-20.5-45.6-45.2c0-25.1,20.5-45.6,45.6-45.6c13.8,0,26.8,6.4,36,17.7V16.8C95,14.7,90.7,11.1,84,8
	C78.7,5.5,70.6,2.3,61.1,2.3z"/>
<polygon fill="#FFFFFF" points="246.8,118.1 260.2,118.1 260.2,65.9 246.8,53.5 "/>
<rect x="516.2" y="54.6" fill="#FFFFFF" width="85.1" height="13.4"/>
<polygon fill="#FFFFFF" points="737.3,17.8 773,17.8 773,118.1 786.4,118.1 786.4,17.8 822,17.8 822.4,17.8 822.4,4.4 737.3,4.4 "/>
<rect x="516.2" y="104.7" fill="#FFFFFF" width="85.1" height="13.4"/>
<path fill="#FFFFFF" d="M679.7,2.3c-15.9,0-30.4,6.4-41.7,17.3c-10.9,11.3-17.3,26.1-17.3,41.7v0.4c0,15.9,6.4,30.7,17.3,41.7
	c10.9,11.3,25.8,17.3,41.7,17.3c9.5,0,17.7-3.2,23-5.6c6.7-3.2,10.9-6.7,13.1-8.8V89.2c-8.8,11.3-22.2,17.7-36,17.7
	c-25.1,0-45.6-20.5-45.6-45.2c0-25.1,20.5-45.6,45.6-45.6c13.8,0,26.8,6.4,36,17.7V16.8c-2.1-2.1-6.4-5.6-13.1-8.8
	C697.4,5.5,689.3,2.3,679.7,2.3z"/>
<rect x="516.2" y="4.4" fill="#FFFFFF" width="85.1" height="13.4"/>
<path fill="#FFFFFF" d="M212.9,19.6C202,8.3,186.8,2.3,171.2,2.3s-30.4,6-41.7,17.3c-11.3,10.9-17.3,25.8-17.3,41.7
	c0,15.5,6,30.4,17.3,41.7c10.9,11.3,26.1,17.3,41.7,17.3s30.4-6,41.7-17.3c11.3-10.9,17.3-25.8,17.3-41.7S224.2,30.6,212.9,19.6z
	 M171.2,106.8c-25.1,0-45.6-20.5-45.6-45.6s20.5-45.6,45.6-45.6c25.1,0,45.6,20.5,45.6,45.6C216.8,86.4,196.3,106.8,171.2,106.8z"/>
<path fill="#FF0000" d="M1083.7,4.7h15.8l36.7,48.3l37.4-48.3h15.9v115.2h-12.3V19.1l-40.3,50.2l0.2,0.2l-41-50.4"/>
<path fill="#FF0000" d="M1200.4,102c0,0,2.6,4.6,5.8,7.9c3.2,3.2,6.8,5.6,10.9,7.3c4.1,1.7,8.4,2.6,12.8,2.6c4.8,0,9.2-0.7,13.3-2.1
	c4.1-1.4,7.7-3.4,10.6-6.2c3.1-2.7,5.3-6.2,7-10.1c1.7-3.9,2.6-8.7,2.6-14s-0.9-9.7-2.7-13.3c-1.9-3.6-4.3-6.5-7.2-8.9
	c-2.9-2.4-6.2-4.4-9.9-6c-3.8-1.5-7.5-3.1-11.3-4.4c-3.1-1.2-6.2-2.4-9.1-3.6s-5.6-2.6-7.9-4.3c-2.2-1.7-4.1-3.6-5.5-6
	c-1.4-2.2-2.1-5.1-2.1-8.5c0-3.2,0.7-6,1.9-8.2s2.7-3.9,4.8-5.5c2.1-1.4,4.3-2.4,6.7-3.1c2.6-0.7,5.1-1,7.7-1c2.9,0,5.5,0.5,8,1.4
	c2.6,1,4.8,2.4,6.7,4.3c2.1,1.9,2.9,2.9,4.1,5.6h11.1c-1.2-3.8-2.7-7.5-5.3-10.6c-2.4-3.1-5.6-5.8-9.7-7.7c-4.1-2.1-9.1-3.1-15-3.1
	c-4.6,0-8.7,0.7-12.5,1.9s-7,2.9-9.7,5.3c-2.7,2.4-4.8,5.3-6.3,8.7c-1.5,3.4-2.2,7.5-2.2,12c0,5.5,0.9,9.9,2.9,13.7
	c1.9,3.6,4.3,6.7,7.3,9.1s6.3,4.4,10.1,6.2c3.8,1.5,7.5,3.1,11.3,4.3c2.9,1,5.8,2.2,8.7,3.4c2.9,1.2,5.5,2.6,7.9,4.3
	c2.2,1.7,4.1,3.6,5.5,5.8c1.4,2.2,2.1,5,2.1,8.2c0,3.9-0.7,7.3-1.9,10.1s-3.1,5-5.1,6.8c-2.2,1.7-4.6,2.9-7.5,3.8s-5.8,1.2-8.9,1.2
	c-3.4,0-6.7-0.7-9.6-1.9c-2.9-1.4-5.5-3.1-7.5-5.5"/>
<rect x="891.5" y="5" width="8.6" height="113.8"/>
<path fill="#FF0000" d="M1035.8,105.4c13.4,0,26.5-6.2,35.1-17.2v16.5c-2.1,2.1-6.2,5.5-12.7,8.6c-5.2,2.4-13.1,5.5-22.3,5.5
	c-15.5,0-29.9-5.8-40.6-16.8c-10.7-10.7-16.8-25.1-16.8-40.6l0,0l0,0v-0.3c0-15.1,6.2-29.6,16.8-40.6c11-10.7,25.1-16.8,40.6-16.8
	c9.3,0,17.2,3.1,22.3,5.5c6.5,3.1,10.7,6.5,12.7,8.6v16.5c-8.9-11-21.7-17.2-35.1-17.2c-24.4,0-44.3,19.9-44.3,44.3
	C991.5,85.5,1011.4,105.4,1035.8,105.4z"/>
</svg>
